<?xml version="1.0" encoding="UTF-8"?>
<svg id="Layer_17" data-name="Layer 17" xmlns="http://www.w3.org/2000/svg" viewBox="0 0 464.03 407.13">
  <defs>
    <style>
      .cls-1 {
        stroke: #231f20;
        stroke-miterlimit: 10;
      }

      .cls-1, .cls-2 {
        fill: #fff;
      }

      .cls-2, .cls-3 {
        stroke-width: 0px;
      }

      .cls-3 {
        fill: #231f20;
      }
    </style>
  </defs>
  <polygon class="cls-1" points="344.66 7.97 121.13 7.97 9.37 201.56 121.13 395.14 344.66 395.14 456.43 201.56 344.66 7.97"/>
  <g>
    <path class="cls-3" d="m176.18,70.36c1.85-2.16,2.79-3.23,4.71-5.35,2.83,1.79,5.87,2.53,8.66,2.12,4.31-.62,6.36-2.26,5.84-6.54-.69-5.65-1.03-8.48-1.72-14.13-7.08.86-10.62,1.4-17.66,2.66-.42-2.35-.64-3.53-1.06-5.88,9.38-1.73,18.98-3.02,28.48-3.82.73,8.29,1.1,12.43,1.84,20.71.55,6.15-3.05,11.39-14.53,13.04-4.6.66-10.19.24-14.57-2.82Z"/>
    <path class="cls-3" d="m217.15,38.52c10.23-.52,20.66-.49,30.88.08-.12,2.39-.18,3.58-.3,5.97-7.99-.41-11.99-.48-19.99-.38.04,2.92.06,4.38.09,7.3,6.67-.08,10.01-.04,16.67.24l-.25,5.97c-6.54-.27-9.81-.32-16.35-.24.06,4.9.09,7.34.16,12.24-3.79.05-5.69.1-9.48.28-.48-10.48-.96-20.97-1.43-31.45Z"/>
    <path class="cls-3" d="m260.18,39.45c10.23.86,20.59,2.29,30.66,4.23l-1.1,5.87c-7.89-1.48-11.86-2.1-19.81-3.07-.35,2.9-.53,4.35-.89,7.24,6.63.81,9.94,1.31,16.53,2.48-.42,2.35-.63,3.53-1.05,5.88-6.46-1.15-9.71-1.64-16.21-2.43-.59,4.86-.89,7.29-1.49,12.15-3.77-.46-5.66-.66-9.44-1,.93-10.45,1.86-20.91,2.8-31.36Z"/>
    <path class="cls-3" d="m131.33,116.14c3.33-1.38,5-2.04,8.36-3.3,5.24,4.72,7.78,7.14,12.69,12.09,2.07,2.22,3.08,3.34,5.09,5.6.07-.02.11-.03.18-.06-1.36-3.04-3.47-6.99-4.63-10.53-1.39-4.23-2.09-6.34-3.49-10.57,3.16-1.04,4.74-1.54,7.92-2.48,2.97,10.07,5.94,20.13,8.92,30.2-3.01.89-4.51,1.36-7.49,2.35-4.69-5.05-7.12-7.53-12.15-12.37-2.12-2.16-3.19-3.22-5.37-5.34-.07.03-.11.04-.18.07,1.6,3.12,3.81,6.79,5.12,10.25,1.58,4.18,2.37,6.27,3.94,10.45-2.75,1.04-4.12,1.58-6.84,2.71-4.02-9.7-8.03-19.39-12.05-29.09Z"/>
    <path class="cls-3" d="m171.23,128.84c-1.37-5.19,2.76-9.4,15.31-12.45-.67-2.05-2.75-3.02-6.4-2.25-2.62.55-5.03,2.01-7.71,4.07-1.58-1.53-2.38-2.29-3.99-3.79,3.29-2.81,7.41-5.17,12.12-6.14,7.81-1.6,13.11,1.22,14.22,8.48.83,5.42,1.24,8.13,2.07,13.54-2.45.37-3.67.58-6.11,1.02-.41-1.02-.61-1.54-1.02-2.56-.08.01-.11.02-.19.04-2.24,2.26-5.08,4.32-8.28,5.04-5.05,1.13-8.99-1.1-10.02-4.99Zm-2.46-24.99c-.53-2.14.97-4.26,3.72-4.88,2.74-.63,5.02.62,5.47,2.79.45,2.16-1.08,4.19-3.74,4.8-2.68.61-4.93-.56-5.46-2.7Zm19.28,20.62c-.29-1.54-.43-2.32-.72-3.86-7.69,1.8-9.39,3.88-8.93,5.87.35,1.5,1.9,1.91,4.04,1.45,2.28-.49,4.02-1.83,5.61-3.46Zm-6.59-23.43c-.42-2.17,1.19-4.2,3.95-4.69,2.78-.49,4.97.87,5.31,3.05.35,2.18-1.26,4.13-3.96,4.61-2.68.47-4.88-.8-5.3-2.97Z"/>
    <path class="cls-3" d="m202.71,126.37c1.07-1.92,1.62-2.88,2.75-4.79,3.43,1.46,7.06,2.14,10.78,1.9,2.86-.19,4.08-1.11,4.02-2.29-.06-1.33-1.36-1.81-6.62-2.41-7.3-.84-10.5-2.79-10.93-6.47-.52-4.43,4-8.11,12.04-8.64,5.02-.33,9.33,1.21,12.26,2.75-1.45,1.74-2.16,2.61-3.56,4.36-2.81-1.37-6.06-2.04-9.1-1.82-2.55.18-3.75,1.09-3.65,2.21.11,1.33,1.82,1.46,6.47,2.09,8.46,1.16,10.75,3.36,10.82,7.26.07,4.34-4.27,7.7-12.42,8.28-4.53.32-9.35-.84-12.84-2.43Z"/>
    <path class="cls-3" d="m234.1,124.57c1.32-1.76,1.99-2.64,3.36-4.38,3.19,1.91,6.7,3.07,10.42,3.33,2.86.2,4.19-.55,4.29-1.73.11-1.33-1.11-1.97-6.24-3.28-7.12-1.81-10.02-4.17-9.96-7.87.08-4.46,5.04-7.5,13.08-6.95,5.02.34,9.09,2.45,11.79,4.37-1.67,1.52-2.49,2.29-4.12,3.85-2.6-1.73-5.73-2.83-8.78-3.03-2.55-.17-3.86.57-3.92,1.7-.07,1.33,1.61,1.69,6.13,2.94,8.23,2.28,10.22,4.77,9.75,8.65-.51,4.31-5.28,7.06-13.43,6.54-4.53-.29-9.15-2.08-12.39-4.13Z"/>
    <path class="cls-3" d="m263.35,137.75c1.13-1.89,1.71-2.84,2.88-4.72,1.89,1.15,3.42,1.69,4.87,1.95,3.53.62,4.91-.68,5.59-4.08,1.34-6.77,2-10.15,3.34-16.92-4.37-.86-6.56-1.24-10.96-1.91.33-2.2.5-3.31.83-5.51,7.8,1.18,11.69,1.92,19.41,3.71-2.04,8.78-3.05,13.17-5.09,21.94-1.32,5.7-4.89,9.9-13.66,8.34-2.98-.53-5.26-1.57-7.22-2.81Zm17.55-37.52c.49-2.56,3.23-3.89,6.55-3.18,3.32.71,5.29,3.05,4.69,5.58-.6,2.55-3.31,3.68-6.52,2.99-3.21-.68-5.22-2.82-4.73-5.39Z"/>
    <path class="cls-3" d="m298.5,125.04c2.19-7.67,10.2-10.18,17.32-7.7,7.12,2.48,11.9,9.45,8.85,16.83-3.04,7.35-10.7,9.14-17.12,6.9-6.42-2.24-11.24-8.39-9.05-16.03Zm8.87-17.71c.64-2.11,3.01-3.17,5.71-2.3,2.69.86,4.03,3.11,3.32,5.2-.71,2.09-3.08,3.05-5.69,2.21-2.63-.84-3.97-3-3.34-5.11Zm9.59,23.8c1.46-3.89.58-7.11-3.03-8.37-3.6-1.26-6.28.72-7.56,4.67-1.27,3.94-.34,7.03,3.07,8.22,3.41,1.19,6.07-.64,7.52-4.52Zm2.84-19.72c.74-2.08,3.18-3,5.84-2,2.67,1.01,3.89,3.31,3.07,5.36s-3.22,2.9-5.82,1.92c-2.58-.97-3.84-3.2-3.1-5.28Z"/>
  </g>
  <g>
    <path class="cls-3" d="m63.83,203.16h11.66v3.34h-7.68v3.53h6.52v3.34h-6.52v4.05h7.95v3.34h-11.93v-17.59Z"/>
    <path class="cls-3" d="m79.08,219.02l1.69-2.48c1.65,1.02,3.49,1.59,5.4,1.59,1.47,0,2.12-.49,2.12-1.15,0-.75-.65-1.02-3.28-1.57-3.64-.78-5.09-2.12-5.09-4.18,0-2.5,2.33-4.19,6.15-4.19,2.39,0,4.4.94,5.8,1.83l-1.78,2.38c-1.35-.82-2.9-1.28-4.38-1.28-1.24,0-1.85.44-1.85,1.07,0,.74.82.92,3.09,1.43,4.13.93,5.28,2.1,5.28,4.28,0,2.42-2.31,4.32-6.61,4.32-2.39,0-4.86-.93-6.55-2.05Z"/>
    <path class="cls-3" d="m98.66,215.2v-4.73h-3.37v-2.96l3.55-.15.51-4.09h3.28v4.09h5.64v3.11h-5.64v4.68c0,2.04.86,2.8,2.81,2.8,1,0,1.86-.2,2.64-.48l.72,2.87c-1.19.35-2.59.72-4.38.72-4.26,0-5.78-2.36-5.78-5.87Z"/>
    <path class="cls-3" d="m115.22,217.9c0-1.76,1.28-3.17,3.14-3.17s3.14,1.41,3.14,3.17-1.28,3.17-3.14,3.17-3.14-1.38-3.14-3.17Z"/>
  </g>
  <g>
    <path class="cls-3" d="m343.29,220.65c4.92-4.12,8.22-7.03,8.22-9.5,0-1.66-1.03-2.57-2.83-2.57-1.37,0-2.48.84-3.45,1.74l-2.13-2.15c1.78-1.8,3.5-2.72,6.12-2.72,3.61,0,6.06,2.16,6.06,5.46,0,2.89-2.97,5.96-6.29,8.86.98-.1,2.23-.19,3.12-.19h4.06v3.34h-12.88v-2.28Z"/>
    <path class="cls-3" d="m359.54,214.28c0-5.83,2.62-8.82,6.59-8.82s6.59,2.99,6.59,8.82-2.62,8.97-6.59,8.97-6.59-3.15-6.59-8.97Zm9.64,0c0-4.45-1.35-5.75-3.05-5.75s-3.05,1.29-3.05,5.75,1.35,5.89,3.05,5.89,3.05-1.44,3.05-5.89Zm-5.08-.05c0-1.24.88-2.05,2.02-2.05s2.02.81,2.02,2.05-.88,2.06-2.02,2.06-2.02-.81-2.02-2.06Z"/>
    <path class="cls-3" d="m375.85,214.28c0-5.83,2.62-8.82,6.59-8.82s6.59,2.99,6.59,8.82-2.62,8.97-6.59,8.97-6.59-3.15-6.59-8.97Zm9.64,0c0-4.45-1.35-5.75-3.05-5.75s-3.05,1.29-3.05,5.75,1.35,5.89,3.05,5.89,3.05-1.44,3.05-5.89Zm-5.08-.05c0-1.24.88-2.05,2.02-2.05s2.02.81,2.02,2.05-.88,2.06-2.02,2.06-2.02-.81-2.02-2.06Z"/>
    <path class="cls-3" d="m392.16,214.28c0-5.83,2.62-8.82,6.59-8.82s6.59,2.99,6.59,8.82-2.62,8.97-6.59,8.97-6.59-3.15-6.59-8.97Zm9.64,0c0-4.45-1.35-5.75-3.05-5.75s-3.05,1.29-3.05,5.75,1.35,5.89,3.05,5.89,3.05-1.44,3.05-5.89Zm-5.08-.05c0-1.24.88-2.05,2.02-2.05s2.02.81,2.02,2.05-.88,2.06-2.02,2.06-2.02-.81-2.02-2.06Z"/>
  </g>
  <polygon class="cls-3" points="120.09 394.22 133.11 395.14 213.05 157.87 209.43 157.22 120.09 394.22"/>
  <polygon class="cls-3" points="342.66 394.22 329.64 395.14 249.7 157.87 253.32 157.22 342.66 394.22"/>
  <polygon class="cls-3" points="327.56 264.76 335.97 278.69 127.51 278.28 134.76 264.53 327.56 264.76"/>
  <polygon class="cls-2" points="151.83 268.35 149.03 274.11 154.35 274.11 156.31 268.35 151.83 268.35"/>
  <polygon class="cls-3" points="349.66 295.6 360.01 312.42 103.46 311.93 112.4 295.33 349.66 295.6"/>
  <polygon class="cls-2" points="310.19 268.59 312.99 274.35 307.67 274.35 305.72 268.59 310.19 268.59"/>
  <polygon class="cls-2" points="275.51 268.59 280.27 268.59 282.51 274.35 275.51 274.35 275.51 268.59"/>
  <polygon class="cls-2" points="187.39 268.59 182.63 268.59 180.4 274.35 187.39 274.35 187.39 268.59"/>
  <polygon class="cls-2" points="133.4 299.94 129.95 306.9 136.5 306.9 138.91 299.94 133.4 299.94"/>
  <polygon class="cls-3" points="372.85 331.96 385.24 352.14 78.24 351.55 88.93 331.63 372.85 331.96"/>
  <polygon class="cls-2" points="328.29 300.22 331.73 307.18 325.19 307.18 322.78 300.22 328.29 300.22"/>
  <polygon class="cls-2" points="285.61 300.22 291.46 300.22 294.22 307.18 285.61 307.18 285.61 300.22"/>
  <polygon class="cls-2" points="177.16 300.22 171.31 300.22 168.55 307.18 177.16 307.18 177.16 300.22"/>
  <polygon class="cls-2" points="114.06 337.16 109.94 345.51 117.77 345.51 120.65 337.16 114.06 337.16"/>
  <polygon class="cls-3" points="309.49 239.45 316.48 251.38 143.33 251.03 149.36 239.26 309.49 239.45"/>
  <polygon class="cls-2" points="347.27 337.5 351.39 345.85 343.56 345.85 340.68 337.5 347.27 337.5"/>
  <polygon class="cls-2" points="296.2 337.5 303.21 337.5 306.5 345.85 296.2 345.85 296.2 337.5"/>
  <polygon class="cls-2" points="166.43 337.5 159.42 337.5 156.13 345.85 166.43 345.85 166.43 337.5"/>
  <polygon class="cls-2" points="163.54 242.53 161.21 247.46 165.63 247.46 167.25 242.53 163.54 242.53"/>
  <polygon class="cls-3" points="292.77 216.23 298.38 225.67 159.36 225.39 164.2 216.08 292.77 216.23"/>
  <polygon class="cls-2" points="295.07 242.73 297.39 247.66 292.97 247.66 291.35 242.73 295.07 242.73"/>
  <polygon class="cls-2" points="266.26 242.73 270.21 242.73 272.07 247.66 266.26 247.66 266.26 242.73"/>
  <polygon class="cls-2" points="193.07 242.73 189.12 242.73 187.26 247.66 193.07 247.66 193.07 242.73"/>
  <polygon class="cls-2" points="175.58 218.66 173.71 222.57 177.26 222.57 178.57 218.66 175.58 218.66"/>
  <polygon class="cls-3" points="272.58 173.63 276.29 181.15 184.32 180.93 187.52 173.51 272.58 173.63"/>
  <polygon class="cls-2" points="281.19 218.82 283.05 222.72 279.51 222.72 278.2 218.82 281.19 218.82"/>
  <polygon class="cls-2" points="258.06 218.82 261.23 218.82 262.73 222.72 258.06 222.72 258.06 218.82"/>
  <polygon class="cls-2" points="199.29 218.82 196.12 218.82 194.63 222.72 199.29 222.72 199.29 218.82"/>
  <polygon class="cls-2" points="195.05 175.57 193.81 178.68 196.16 178.68 197.02 175.57 195.05 175.57"/>
  <polygon class="cls-3" points="283.97 194.56 288.65 203.48 172.65 203.21 176.69 194.41 283.97 194.56"/>
  <polygon class="cls-2" points="264.92 175.69 266.15 178.81 263.81 178.81 262.94 175.69 264.92 175.69"/>
  <polygon class="cls-2" points="248.27 175.69 250.37 175.69 251.35 178.81 248.27 178.81 248.27 175.69"/>
  <polygon class="cls-2" points="212.09 175.69 209.99 175.69 209 178.81 212.09 178.81 212.09 175.69"/>
  <polygon class="cls-2" points="186.19 196.86 184.63 200.55 187.59 200.55 188.68 196.86 186.19 196.86"/>
  <polygon class="cls-3" points="267.42 157.26 270.46 162.92 195.16 162.75 197.78 157.17 267.42 157.26"/>
  <polygon class="cls-2" points="274.3 197.01 275.86 200.69 272.9 200.69 271.81 197.01 274.3 197.01"/>
  <polygon class="cls-2" points="255.01 197.01 257.65 197.01 258.9 200.69 255.01 200.69 255.01 197.01"/>
  <polygon class="cls-2" points="205.97 197.01 203.33 197.01 202.08 200.69 205.97 200.69 205.97 197.01"/>
  <polygon class="cls-2" points="203.94 158.72 202.93 161.06 204.85 161.06 205.56 158.72 203.94 158.72"/>
  <polygon class="cls-2" points="261.15 158.82 262.16 161.15 260.24 161.15 259.53 158.82 261.15 158.82"/>
  <polygon class="cls-2" points="245.92 158.82 247.64 158.82 248.45 161.15 245.92 161.15 245.92 158.82"/>
  <polygon class="cls-2" points="219.49 158.82 217.77 158.82 216.96 161.15 219.49 161.15 219.49 158.82"/>
</svg>