<?xml version="1.0" encoding="UTF-8"?>
<svg id="Layer_15" data-name="Layer 15" xmlns="http://www.w3.org/2000/svg" viewBox="0 0 464.03 407.13">
  <defs>
    <style>
      .cls-1, .cls-2 {
        stroke-width: 0px;
      }

      .cls-3 {
        fill: #fff;
        stroke: #341a0d;
      }

      .cls-3, .cls-4 {
        stroke-miterlimit: 10;
      }

      .cls-2, .cls-4 {
        fill: #231f20;
      }

      .cls-4 {
        stroke: #fff;
      }
    </style>
  </defs>
  <polygon class="cls-3" points="346.03 6.26 118.21 6.26 4.3 203.56 118.21 400.86 346.03 400.86 459.95 203.56 346.03 6.26"/>
  <g>
    <path class="cls-2" d="m152.3,313.22h7.1l6.44,15.22,2.62,6.73h.16c-.31-3.22-.96-7.51-.96-11.12v-10.82h6.6v30.61h-7.1l-6.44-15.25-2.62-6.69h-.16c.31,3.38.96,7.48.96,11.09v10.86h-6.6v-30.61Z"/>
    <path class="cls-2" d="m180.43,337.37c0-5.22,4.32-7.88,15.33-8.55-.24-2.08-1.81-3.36-4.94-3.36-2.25,0-4.48.87-7.1,2.18l-2.46-4.53c3.23-1.84,6.95-3.15,10.9-3.15,6.55,0,10.52,3.41,10.52,10.55v13.32h-5.65l-.5-2.63h-.17c-2.35,1.77-5.27,3.19-8.26,3.19-4.71,0-7.66-3.11-7.66-7.02Zm3.18-24.13c0-2.15,1.54-3.78,3.77-3.78s3.77,1.64,3.77,3.78-1.55,3.78-3.77,3.78-3.77-1.64-3.77-3.78Zm12.14,23.57v-3.82c-6.85.34-8.7,1.83-8.7,3.82,0,1.5,1.26,2.23,3.22,2.23,2.08,0,3.83-.95,5.48-2.23Zm-1.74-23.57c0-2.15,1.55-3.78,3.77-3.78s3.77,1.64,3.77,3.78-1.54,3.78-3.77,3.78-3.77-1.64-3.77-3.78Z"/>
    <path class="cls-2" d="m208.41,340.82l2.94-4.31c2.87,1.78,6.07,2.76,9.4,2.76,2.56,0,3.7-.85,3.7-2,0-1.3-1.13-1.77-5.7-2.74-6.34-1.36-8.86-3.68-8.86-7.28,0-4.34,4.05-7.29,10.71-7.29,4.15,0,7.66,1.63,10.09,3.18l-3.1,4.15c-2.35-1.42-5.05-2.23-7.62-2.23-2.16,0-3.23.77-3.23,1.86,0,1.29,1.43,1.6,5.38,2.48,7.19,1.61,9.19,3.66,9.19,7.45,0,4.22-4.02,7.52-11.5,7.52-4.16,0-8.45-1.61-11.39-3.57Z"/>
    <path class="cls-2" d="m236.78,340.82l2.94-4.31c2.87,1.78,6.07,2.76,9.4,2.76,2.56,0,3.7-.85,3.7-2,0-1.3-1.13-1.77-5.7-2.74-6.34-1.36-8.86-3.68-8.86-7.28,0-4.34,4.05-7.29,10.71-7.29,4.15,0,7.66,1.63,10.09,3.18l-3.1,4.15c-2.35-1.42-5.05-2.23-7.62-2.23-2.16,0-3.23.77-3.23,1.86,0,1.29,1.43,1.6,5.38,2.48,7.19,1.61,9.19,3.66,9.19,7.45,0,4.22-4.02,7.52-11.5,7.52-4.16,0-8.45-1.61-11.39-3.57Z"/>
    <path class="cls-2" d="m264.63,351.45l2.01-4.94c1.88.83,3.37,1.1,4.74,1.1,3.32,0,4.34-1.52,4.34-4.9v-16.76h-9.38v-5.42h16.3v21.9c0,5.69-2.38,10.61-10.83,10.61-2.87,0-5.17-.66-7.17-1.58Zm9.64-38.79c0-2.53,1.92-4.29,4.59-4.29s4.59,1.76,4.59,4.29-1.92,4.23-4.59,4.23-4.59-1.68-4.59-4.23Z"/>
    <path class="cls-2" d="m293.23,332.19c0-7.76,5.73-12.23,11.88-12.23s11.88,4.47,11.88,12.23-5.73,12.2-11.88,12.2-11.88-4.47-11.88-12.2Zm2.91-18.95c0-2.15,1.54-3.78,3.77-3.78s3.77,1.64,3.77,3.78-1.55,3.78-3.77,3.78-3.77-1.64-3.77-3.78Zm13.78,18.95c0-4.04-1.62-6.65-4.81-6.65s-4.81,2.61-4.81,6.65,1.62,6.62,4.81,6.62,4.81-2.59,4.81-6.62Zm-3.38-18.95c0-2.15,1.55-3.78,3.77-3.78s3.77,1.64,3.77,3.78-1.54,3.78-3.77,3.78-3.77-1.64-3.77-3.78Z"/>
  </g>
  <g>
    <path class="cls-1" d="m194.51,86.26l3.98-4.29c1.75,2.18,3.82,3.36,5.84,3.36,3.11,0,4.71-1.36,4.71-5.55v-13.84h-11.95v-5.81h18.89v20.21c0,6-2.96,10.97-11.42,10.97-3.39,0-7.38-1.33-10.05-5.05Z"/>
    <path class="cls-1" d="m225.03,60.14h20.35v5.81h-13.42v7.09h11.46v5.81h-11.46v11.9h-6.93v-30.61Z"/>
    <path class="cls-1" d="m253.4,60.14h20.35v5.81h-13.42v7.09h11.46v5.81h-11.46v11.9h-6.93v-30.61Z"/>
  </g>
  <g>
    <path class="cls-2" d="m59.17,190.86h14.47v4.14h-9.53v4.38h8.09v4.14h-8.09v5.02h9.86v4.14h-14.8v-21.83Z"/>
    <path class="cls-2" d="m78.09,210.54l2.09-3.07c2.04,1.27,4.33,1.97,6.71,1.97,1.83,0,2.64-.61,2.64-1.42,0-.92-.81-1.26-4.07-1.95-4.52-.97-6.32-2.62-6.32-5.19,0-3.1,2.89-5.2,7.64-5.2,2.96,0,5.46,1.17,7.19,2.27l-2.21,2.96c-1.68-1.01-3.6-1.59-5.44-1.59-1.54,0-2.3.55-2.3,1.33,0,.92,1.02,1.14,3.84,1.77,5.13,1.15,6.55,2.61,6.55,5.31,0,3.01-2.87,5.36-8.2,5.36-2.96,0-6.03-1.15-8.13-2.55Z"/>
    <path class="cls-2" d="m102.38,205.8v-5.87h-4.19v-3.67l4.41-.19.63-5.08h4.08v5.08h7v3.86h-7v5.8c0,2.53,1.07,3.48,3.49,3.48,1.24,0,2.3-.25,3.28-.59l.89,3.57c-1.47.44-3.22.9-5.43.9-5.29,0-7.17-2.93-7.17-7.29Z"/>
    <path class="cls-2" d="m122.93,209.15c0-2.18,1.59-3.93,3.9-3.93s3.9,1.75,3.9,3.93-1.59,3.93-3.9,3.93-3.9-1.72-3.9-3.93Z"/>
  </g>
  <g>
    <path class="cls-2" d="m324.59,208.71h5.73v-12.29h-4.72v-3.07c2.88-.43,4.39-.96,6.02-1.94h3.62v17.29h4.83v3.98h-15.49v-3.98Z"/>
    <path class="cls-2" d="m344.27,210.53l2.6-2.95c.88.81,2.32,1.53,3.75,1.53,2.72,0,5.1-1.89,5.1-7.55,0-5.28-1.99-6.84-4.01-6.84-1.7,0-3.24,1.02-3.24,3.42,0,2.17,1.27,3.1,3.15,3.1,1.29,0,2.73-.62,4.06-2.29l.22,3.22c-1.55,1.62-3.7,2.55-5.35,2.55-3.71,0-6.58-2.07-6.58-6.57s3.56-7.13,7.63-7.13c4.37,0,8.62,3.08,8.62,10.55,0,7.95-4.46,11.53-9.16,11.53-3.02,0-5.33-1.19-6.78-2.56Z"/>
    <path class="cls-2" d="m375.16,195.56h-10.67v-4.15h15.98v3.04c-5.39,5.93-6.24,9.93-6.64,18.23h-4.97c.42-7.08,1.86-11.52,6.3-17.12Z"/>
    <path class="cls-2" d="m385.29,208.71h5.73v-12.29h-4.72v-3.07c2.88-.43,4.39-.96,6.02-1.94h3.62v17.29h4.83v3.98h-15.49v-3.98Z"/>
  </g>
  <g>
    <polygon class="cls-4" points="180.68 275.63 175.28 280.17 127.06 249.83 132.46 245.29 180.68 275.63"/>
    <polygon class="cls-4" points="196.74 262.14 191.33 266.68 143.11 236.34 148.51 231.8 196.74 262.14"/>
    <polygon class="cls-4" points="228.75 235.25 223.35 239.79 175.12 209.45 180.53 204.91 228.75 235.25"/>
    <polygon class="cls-4" points="279.64 192.5 274.24 197.04 226.01 166.7 231.42 162.16 279.64 192.5"/>
    <polygon class="cls-4" points="298.36 176.78 292.95 181.32 244.73 150.97 250.13 146.43 298.36 176.78"/>
    <polygon class="cls-4" points="329.37 150.72 323.97 155.26 275.74 124.92 281.15 120.38 329.37 150.72"/>
    <polygon class="cls-4" points="211.4 249.83 205.99 254.37 157.77 224.03 163.17 219.49 211.4 249.83"/>
    <polygon class="cls-4" points="314.3 163.38 308.89 167.92 260.67 137.58 266.07 133.04 314.3 163.38"/>
    <g>
      <path class="cls-4" d="m136.67,250.69l-1.3,1.1c-.22.18-.6.2-.86.04h0c-.25-.16-.28-.44-.06-.62l1.3-1.1c.22-.18.6-.2.86-.04h0c.25.16.28.44.06.62Z"/>
      <path class="cls-4" d="m143.98,255.55l-1.3,1.1c-.22.18-.6.2-.86.04h0c-.25-.16-.28-.44-.06-.62l1.3-1.1c.22-.18.6-.2.86-.04h0c.25.16.28.44.06.62Z"/>
      <path class="cls-4" d="m167.15,270.13l-1.3,1.1c-.22.18-.6.2-.86.04h0c-.25-.16-.28-.44-.06-.62l1.3-1.1c.22-.18.6-.2.86-.04h0c.25.16.28.44.06.62Z"/>
      <path class="cls-4" d="m173.71,274.25l-1.3,1.1c-.22.18-.6.2-.86.04h0c-.25-.16-.28-.44-.06-.62l1.3-1.1c.22-.18.6-.2.86-.04h0c.25.16.28.44.06.62Z"/>
      <path class="cls-4" d="m152.73,237.21l-1.3,1.1c-.22.18-.6.2-.86.04h0c-.25-.16-.28-.44-.06-.62l1.3-1.1c.22-.18.6-.2.86-.04h0c.25.16.28.44.06.62Z"/>
      <path class="cls-4" d="m160.03,242.06l-1.3,1.1c-.22.18-.6.2-.86.04h0c-.25-.16-.28-.44-.06-.62l1.3-1.1c.22-.18.6-.2.86-.04h0c.25.16.28.44.06.62Z"/>
      <path class="cls-4" d="m183.21,256.64l-1.3,1.1c-.22.18-.6.2-.86.04h0c-.25-.16-.28-.44-.06-.62l1.3-1.1c.22-.18.6-.2.86-.04h0c.25.16.28.44.06.62Z"/>
      <path class="cls-4" d="m189.76,260.77l-1.3,1.1c-.22.18-.6.2-.86.04h0c-.25-.16-.28-.44-.06-.62l1.3-1.1c.22-.18.6-.2.86-.04h0c.25.16.28.44.06.62Z"/>
      <path class="cls-4" d="m167.38,224.89l-1.3,1.1c-.22.18-.6.2-.86.04h0c-.25-.16-.28-.44-.06-.62l1.3-1.1c.22-.18.6-.2.86-.04h0c.25.16.28.44.06.62Z"/>
      <path class="cls-4" d="m174.69,229.75l-1.3,1.1c-.22.18-.6.2-.86.04h0c-.25-.16-.28-.44-.06-.62l1.3-1.1c.22-.18.6-.2.86-.04h0c.25.16.28.44.06.62Z"/>
      <path class="cls-4" d="m197.86,244.33l-1.3,1.1c-.22.18-.6.2-.86.04h0c-.25-.16-.28-.44-.06-.62l1.3-1.1c.22-.18.6-.2.86-.04h0c.25.16.28.44.06.62Z"/>
      <path class="cls-4" d="m204.42,248.45l-1.3,1.1c-.22.18-.6.2-.86.04h0c-.25-.16-.28-.44-.06-.62l1.3-1.1c.22-.18.6-.2.86-.04h0c.25.16.28.44.06.62Z"/>
      <path class="cls-4" d="m184.74,210.31l-1.3,1.1c-.22.18-.6.2-.86.04h0c-.25-.16-.28-.44-.06-.62l1.3-1.1c.22-.18.6-.2.86-.04h0c.25.16.28.44.06.62Z"/>
      <path class="cls-4" d="m192.05,215.17l-1.3,1.1c-.22.18-.6.2-.86.04h0c-.25-.16-.28-.44-.06-.62l1.3-1.1c.22-.18.6-.2.86-.04h0c.25.16.28.44.06.62Z"/>
      <path class="cls-4" d="m215.22,229.75l-1.3,1.1c-.22.18-.6.2-.86.04h0c-.25-.16-.28-.44-.06-.62l1.3-1.1c.22-.18.6-.2.86-.04h0c.25.16.28.44.06.62Z"/>
      <path class="cls-4" d="m221.78,233.87l-1.3,1.1c-.22.18-.6.2-.86.04h0c-.25-.16-.28-.44-.06-.62l1.3-1.1c.22-.18.6-.2.86-.04h0c.25.16.28.44.06.62Z"/>
      <path class="cls-4" d="m235.63,167.56l-1.3,1.1c-.22.18-.6.2-.86.04h0c-.25-.16-.28-.44-.06-.62l1.3-1.1c.22-.18.6-.2.86-.04h0c.25.16.28.44.06.62Z"/>
      <path class="cls-4" d="m242.94,172.41l-1.3,1.1c-.22.18-.6.2-.86.04h0c-.25-.16-.28-.44-.06-.62l1.3-1.1c.22-.18.6-.2.86-.04h0c.25.16.28.44.06.62Z"/>
      <path class="cls-4" d="m266.11,187l-1.3,1.1c-.22.18-.6.2-.86.04h0c-.25-.16-.28-.44-.06-.62l1.3-1.1c.22-.18.6-.2.86-.04h0c.25.16.28.44.06.62Z"/>
      <path class="cls-4" d="m272.67,191.12l-1.3,1.1c-.22.18-.6.2-.86.04h0c-.25-.16-.28-.44-.06-.62l1.3-1.1c.22-.18.6-.2.86-.04h0c.25.16.28.44.06.62Z"/>
      <path class="cls-4" d="m254.34,151.84l-1.3,1.1c-.22.18-.6.2-.86.04h0c-.25-.16-.28-.44-.06-.62l1.3-1.1c.22-.18.6-.2.86-.04h0c.25.16.28.44.06.62Z"/>
      <path class="cls-4" d="m261.65,156.69l-1.3,1.1c-.22.18-.6.2-.86.04h0c-.25-.16-.28-.44-.06-.62l1.3-1.1c.22-.18.6-.2.86-.04h0c.25.16.28.44.06.62Z"/>
      <path class="cls-4" d="m284.83,171.27l-1.3,1.1c-.22.18-.6.2-.86.04h0c-.25-.16-.28-.44-.06-.62l1.3-1.1c.22-.18.6-.2.86-.04h0c.25.16.28.44.06.62Z"/>
      <path class="cls-4" d="m291.38,175.4l-1.3,1.1c-.22.18-.6.2-.86.04h0c-.25-.16-.28-.44-.06-.62l1.3-1.1c.22-.18.6-.2.86-.04h0c.25.16.28.44.06.62Z"/>
      <path class="cls-4" d="m270.28,138.45l-1.3,1.1c-.22.18-.6.2-.86.04h0c-.25-.16-.28-.44-.06-.62l1.3-1.1c.22-.18.6-.2.86-.04h0c.25.16.28.44.06.62Z"/>
      <path class="cls-4" d="m277.59,143.3l-1.3,1.1c-.22.18-.6.2-.86.04h0c-.25-.16-.28-.44-.06-.62l1.3-1.1c.22-.18.6-.2.86-.04h0c.25.16.28.44.06.62Z"/>
      <path class="cls-4" d="m300.77,157.88l-1.3,1.1c-.22.18-.6.2-.86.04h0c-.25-.16-.28-.44-.06-.62l1.3-1.1c.22-.18.6-.2.86-.04h0c.25.16.28.44.06.62Z"/>
      <path class="cls-4" d="m307.32,162.01l-1.3,1.1c-.22.18-.6.2-.86.04h0c-.25-.16-.28-.44-.06-.62l1.3-1.1c.22-.18.6-.2.86-.04h0c.25.16.28.44.06.62Z"/>
      <path class="cls-4" d="m285.36,125.78l-1.3,1.1c-.22.18-.6.2-.86.04h0c-.25-.16-.28-.44-.06-.62l1.3-1.1c.22-.18.6-.2.86-.04h0c.25.16.28.44.06.62Z"/>
      <path class="cls-4" d="m292.67,130.64l-1.3,1.1c-.22.18-.6.2-.86.04h0c-.25-.16-.28-.44-.06-.62l1.3-1.1c.22-.18.6-.2.86-.04h0c.25.16.28.44.06.62Z"/>
      <path class="cls-4" d="m315.84,145.22l-1.3,1.1c-.22.18-.6.2-.86.04h0c-.25-.16-.28-.44-.06-.62l1.3-1.1c.22-.18.6-.2.86-.04h0c.25.16.28.44.06.62Z"/>
      <path class="cls-4" d="m322.4,149.34l-1.3,1.1c-.22.18-.6.2-.86.04h0c-.25-.16-.28-.44-.06-.62l1.3-1.1c.22-.18.6-.2.86-.04h0c.25.16.28.44.06.62Z"/>
    </g>
    <polygon class="cls-4" points="308.45 113.52 120.61 271.32 116.86 268.97 304.71 111.16 308.45 113.52"/>
    <polygon class="cls-4" points="338.53 132.45 150.69 290.25 146.95 287.89 334.79 130.09 338.53 132.45"/>
  </g>
  <g>
    <polygon class="cls-4" points="290.38 269.3 296.7 273.16 337.74 237.67 331.42 233.81 290.38 269.3"/>
    <polygon class="cls-4" points="271.6 257.82 277.92 261.69 318.96 226.19 312.64 222.33 271.6 257.82"/>
    <polygon class="cls-4" points="234.15 234.94 240.48 238.8 281.51 203.31 275.19 199.44 234.15 234.94"/>
    <polygon class="cls-4" points="174.62 198.56 180.95 202.42 221.98 166.93 215.66 163.06 174.62 198.56"/>
    <polygon class="cls-4" points="152.73 185.18 159.06 189.04 200.09 153.55 193.77 149.69 152.73 185.18"/>
    <polygon class="cls-4" points="116.45 163.01 122.77 166.87 163.81 131.38 157.49 127.51 116.45 163.01"/>
    <polygon class="cls-4" points="254.46 247.35 260.78 251.21 301.82 215.72 295.5 211.85 254.46 247.35"/>
    <polygon class="cls-4" points="134.09 173.78 140.41 177.65 181.45 142.15 175.13 138.29 134.09 173.78"/>
    <g>
      <path class="cls-4" d="m328.43,239.63l1.53.93c.26.16.64.13.86-.05h0c.22-.19.18-.46-.07-.62l-1.53-.93c-.26-.16-.64-.13-.86.05h0c-.22.19-.18.46.07.62Z"/>
      <path class="cls-4" d="m322.27,245.26l1.53.93c.26.16.64.13.86-.05h0c.22-.19.18-.46-.07-.62l-1.53-.93c-.26-.16-.64-.13-.86.05h0c-.22.19-.18.46.07.62Z"/>
      <path class="cls-4" d="m302.55,262.32l1.53.93c.26.16.64.13.86-.05h0c.22-.19.18-.46-.07-.62l-1.53-.93c-.26-.16-.64-.13-.86.05h0c-.22.19-.18.46.07.62Z"/>
      <path class="cls-4" d="m296.97,267.14l1.53.93c.26.16.64.13.86-.05h0c.22-.19.18-.46-.07-.62l-1.53-.93c-.26-.16-.64-.13-.86.05h0c-.22.19-.18.46.07.62Z"/>
      <path class="cls-4" d="m309.65,228.15l1.53.93c.26.16.64.13.86-.05h0c.22-.19.18-.46-.07-.62l-1.53-.93c-.26-.16-.64-.13-.86.05h0c-.22.19-.18.46.07.62Z"/>
      <path class="cls-4" d="m303.49,233.78l1.53.93c.26.16.64.13.86-.05h0c.22-.19.18-.46-.07-.62l-1.53-.93c-.26-.16-.64-.13-.86.05h0c-.22.19-.18.46.07.62Z"/>
      <path class="cls-4" d="m283.77,250.84l1.53.93c.26.16.64.13.86-.05h0c.22-.19.18-.46-.07-.62l-1.53-.93c-.26-.16-.64-.13-.86.05h0c-.22.19-.18.46.07.62Z"/>
      <path class="cls-4" d="m278.19,255.66l1.53.93c.26.16.64.13.86-.05h0c.22-.19.18-.46-.07-.62l-1.53-.93c-.26-.16-.64-.13-.86.05h0c-.22.19-.18.46.07.62Z"/>
      <path class="cls-4" d="m292.51,217.67l1.53.93c.26.16.64.13.86-.05h0c.22-.19.18-.46-.07-.62l-1.53-.93c-.26-.16-.64-.13-.86.05h0c-.22.19-.18.46.07.62Z"/>
      <path class="cls-4" d="m286.35,223.31l1.53.93c.26.16.64.13.86-.05h0c.22-.19.18-.46-.07-.62l-1.53-.93c-.26-.16-.64-.13-.86.05h0c-.22.19-.18.46.07.62Z"/>
      <path class="cls-4" d="m266.63,240.36l1.53.93c.26.16.64.13.86-.05h0c.22-.19.18-.46-.07-.62l-1.53-.93c-.26-.16-.64-.13-.86.05h0c-.22.19-.18.46.07.62Z"/>
      <path class="cls-4" d="m261.05,245.19l1.53.93c.26.16.64.13.86-.05h0c.22-.19.18-.46-.07-.62l-1.53-.93c-.26-.16-.64-.13-.86.05h0c-.22.19-.18.46.07.62Z"/>
      <path class="cls-4" d="m272.21,205.27l1.53.93c.26.16.64.13.86-.05h0c.22-.19.18-.46-.07-.62l-1.53-.93c-.26-.16-.64-.13-.86.05h0c-.22.19-.18.46.07.62Z"/>
      <path class="cls-4" d="m266.04,210.9l1.53.93c.26.16.64.13.86-.05h0c.22-.19.18-.46-.07-.62l-1.53-.93c-.26-.16-.64-.13-.86.05h0c-.22.19-.18.46.07.62Z"/>
      <path class="cls-4" d="m246.32,227.95l1.53.93c.26.16.64.13.86-.05h0c.22-.19.18-.46-.07-.62l-1.53-.93c-.26-.16-.64-.13-.86.05h0c-.22.19-.18.46.07.62Z"/>
      <path class="cls-4" d="m240.74,232.78l1.53.93c.26.16.64.13.86-.05h0c.22-.19.18-.46-.07-.62l-1.53-.93c-.26-.16-.64-.13-.86.05h0c-.22.19-.18.46.07.62Z"/>
      <path class="cls-4" d="m212.68,168.88l1.53.93c.26.16.64.13.86-.05h0c.22-.19.18-.46-.07-.62l-1.53-.93c-.26-.16-.64-.13-.86.05h0c-.22.19-.18.46.07.62Z"/>
      <path class="cls-4" d="m206.51,174.52l1.53.93c.26.16.64.13.86-.05h0c.22-.19.18-.46-.07-.62l-1.53-.93c-.26-.16-.64-.13-.86.05h0c-.22.19-.18.46.07.62Z"/>
      <path class="cls-4" d="m186.79,191.57l1.53.93c.26.16.64.13.86-.05h0c.22-.19.18-.46-.07-.62l-1.53-.93c-.26-.16-.64-.13-.86.05h0c-.22.19-.18.46.07.62Z"/>
      <path class="cls-4" d="m181.21,196.4l1.53.93c.26.16.64.13.86-.05h0c.22-.19.18-.46-.07-.62l-1.53-.93c-.26-.16-.64-.13-.86.05h0c-.22.19-.18.46.07.62Z"/>
      <path class="cls-4" d="m190.79,155.51l1.53.93c.26.16.64.13.86-.05h0c.22-.19.18-.46-.07-.62l-1.53-.93c-.26-.16-.64-.13-.86.05h0c-.22.19-.18.46.07.62Z"/>
      <path class="cls-4" d="m184.62,161.14l1.53.93c.26.16.64.13.86-.05h0c.22-.19.18-.46-.07-.62l-1.53-.93c-.26-.16-.64-.13-.86.05h0c-.22.19-.18.46.07.62Z"/>
      <path class="cls-4" d="m164.9,178.2l1.53.93c.26.16.64.13.86-.05h0c.22-.19.18-.46-.07-.62l-1.53-.93c-.26-.16-.64-.13-.86.05h0c-.22.19-.18.46.07.62Z"/>
      <path class="cls-4" d="m159.32,183.02l1.53.93c.26.16.64.13.86-.05h0c.22-.19.18-.46-.07-.62l-1.53-.93c-.26-.16-.64-.13-.86.05h0c-.22.19-.18.46.07.62Z"/>
      <path class="cls-4" d="m172.14,144.11l1.53.93c.26.16.64.13.86-.05h0c.22-.19.18-.46-.07-.62l-1.53-.93c-.26-.16-.64-.13-.86.05h0c-.22.19-.18.46.07.62Z"/>
      <path class="cls-4" d="m165.98,149.74l1.53.93c.26.16.64.13.86-.05h0c.22-.19.18-.46-.07-.62l-1.53-.93c-.26-.16-.64-.13-.86.05h0c-.22.19-.18.46.07.62Z"/>
      <path class="cls-4" d="m146.26,166.8l1.53.93c.26.16.64.13.86-.05h0c.22-.19.18-.46-.07-.62l-1.53-.93c-.26-.16-.64-.13-.86.05h0c-.22.19-.18.46.07.62Z"/>
      <path class="cls-4" d="m140.68,171.62l1.53.93c.26.16.64.13.86-.05h0c.22-.19.18-.46-.07-.62l-1.53-.93c-.26-.16-.64-.13-.86.05h0c-.22.19-.18.46.07.62Z"/>
      <path class="cls-4" d="m154.5,133.33l1.53.93c.26.16.64.13.86-.05h0c.22-.19.18-.46-.07-.62l-1.53-.93c-.26-.16-.64-.13-.86.05h0c-.22.19-.18.46.07.62Z"/>
      <path class="cls-4" d="m148.34,138.97l1.53.93c.26.16.64.13.86-.05h0c.22-.19.18-.46-.07-.62l-1.53-.93c-.26-.16-.64-.13-.86.05h0c-.22.19-.18.46.07.62Z"/>
      <path class="cls-4" d="m128.62,156.02l1.53.93c.26.16.64.13.86-.05h0c.22-.19.18-.46-.07-.62l-1.53-.93c-.26-.16-.64-.13-.86.05h0c-.22.19-.18.46.07.62Z"/>
      <path class="cls-4" d="m123.04,160.85l1.53.93c.26.16.64.13.86-.05h0c.22-.19.18-.46-.07-.62l-1.53-.93c-.26-.16-.64-.13-.86.05h0c-.22.19-.18.46.07.62Z"/>
    </g>
    <polygon class="cls-4" points="129.04 123.87 348.77 258.16 351.96 255.4 132.23 121.12 129.04 123.87"/>
    <polygon class="cls-4" points="103.44 146.01 323.17 280.3 326.36 277.54 106.63 143.26 103.44 146.01"/>
  </g>
</svg>