<?xml version="1.0" encoding="UTF-8"?>
<svg id="Layer_15" data-name="Layer 15" xmlns="http://www.w3.org/2000/svg" viewBox="0 0 466.84 407.13">
  <defs>
    <style>
      .cls-1 {
        fill: #231f20;
        stroke: #fff;
        stroke-miterlimit: 10;
      }
    </style>
  </defs>
  <polygon class="cls-1" points="347.08 6.26 119.25 6.26 5.34 203.56 119.25 400.86 347.08 400.86 460.99 203.56 347.08 6.26"/>
  <g>
    <path class="cls-1" d="m153.34,313.22h7.1l6.44,15.22,2.62,6.73h.16c-.31-3.22-.96-7.51-.96-11.12v-10.82h6.6v30.61h-7.1l-6.44-15.25-2.62-6.69h-.16c.31,3.38.96,7.48.96,11.09v10.86h-6.6v-30.61Z"/>
    <path class="cls-1" d="m181.48,337.37c0-5.22,4.32-7.88,15.33-8.55-.24-2.08-1.81-3.36-4.94-3.36-2.25,0-4.48.87-7.1,2.18l-2.46-4.53c3.23-1.84,6.95-3.15,10.9-3.15,6.55,0,10.52,3.41,10.52,10.55v13.32h-5.65l-.5-2.63h-.18c-2.35,1.77-5.27,3.19-8.26,3.19-4.71,0-7.66-3.11-7.66-7.02Zm3.19-24.13c0-2.15,1.54-3.78,3.77-3.78s3.77,1.64,3.77,3.78-1.55,3.78-3.77,3.78-3.77-1.64-3.77-3.78Zm12.14,23.57v-3.82c-6.86.34-8.7,1.83-8.7,3.82,0,1.5,1.26,2.23,3.22,2.23,2.07,0,3.83-.95,5.48-2.23Zm-1.74-23.57c0-2.15,1.55-3.78,3.77-3.78s3.77,1.64,3.77,3.78-1.54,3.78-3.77,3.78-3.77-1.64-3.77-3.78Z"/>
    <path class="cls-1" d="m209.46,340.82l2.94-4.31c2.87,1.78,6.07,2.76,9.4,2.76,2.56,0,3.7-.85,3.7-2,0-1.3-1.13-1.77-5.7-2.74-6.34-1.36-8.86-3.68-8.86-7.28,0-4.34,4.05-7.29,10.71-7.29,4.15,0,7.66,1.63,10.09,3.18l-3.1,4.15c-2.35-1.42-5.05-2.23-7.62-2.23-2.16,0-3.23.77-3.23,1.86,0,1.29,1.43,1.6,5.38,2.48,7.19,1.61,9.19,3.66,9.19,7.45,0,4.22-4.02,7.52-11.5,7.52-4.16,0-8.46-1.61-11.39-3.57Z"/>
    <path class="cls-1" d="m237.82,340.82l2.94-4.31c2.87,1.78,6.07,2.76,9.4,2.76,2.56,0,3.7-.85,3.7-2,0-1.3-1.13-1.77-5.7-2.74-6.34-1.36-8.86-3.68-8.86-7.28,0-4.34,4.05-7.29,10.71-7.29,4.15,0,7.66,1.63,10.09,3.18l-3.1,4.15c-2.35-1.42-5.05-2.23-7.62-2.23-2.16,0-3.23.77-3.23,1.86,0,1.29,1.43,1.6,5.38,2.48,7.19,1.61,9.19,3.66,9.19,7.45,0,4.22-4.02,7.52-11.5,7.52-4.16,0-8.46-1.61-11.39-3.57Z"/>
    <path class="cls-1" d="m265.67,351.45l2.01-4.94c1.88.83,3.38,1.1,4.74,1.1,3.32,0,4.34-1.52,4.34-4.9v-16.76h-9.38v-5.42h16.29v21.9c0,5.69-2.38,10.61-10.83,10.61-2.87,0-5.17-.66-7.17-1.58Zm9.64-38.79c0-2.53,1.92-4.29,4.59-4.29s4.59,1.76,4.59,4.29-1.93,4.23-4.59,4.23-4.59-1.68-4.59-4.23Z"/>
    <path class="cls-1" d="m294.27,332.19c0-7.76,5.73-12.23,11.88-12.23s11.88,4.47,11.88,12.23-5.73,12.2-11.88,12.2-11.88-4.47-11.88-12.2Zm2.91-18.95c0-2.15,1.54-3.78,3.77-3.78s3.77,1.64,3.77,3.78-1.55,3.78-3.77,3.78-3.77-1.64-3.77-3.78Zm13.78,18.95c0-4.04-1.62-6.65-4.81-6.65s-4.81,2.61-4.81,6.65,1.62,6.62,4.81,6.62,4.81-2.59,4.81-6.62Zm-3.38-18.95c0-2.15,1.55-3.78,3.77-3.78s3.77,1.64,3.77,3.78-1.54,3.78-3.77,3.78-3.77-1.64-3.77-3.78Z"/>
  </g>
  <g>
    <path class="cls-1" d="m195.56,86.26l3.98-4.29c1.75,2.18,3.82,3.36,5.84,3.36,3.12,0,4.71-1.36,4.71-5.55v-13.84h-11.96v-5.81h18.89v20.21c0,6-2.96,10.97-11.42,10.97-3.39,0-7.38-1.33-10.05-5.05Z"/>
    <path class="cls-1" d="m226.07,60.14h20.35v5.81h-13.42v7.09h11.46v5.81h-11.46v11.9h-6.93v-30.61Z"/>
    <path class="cls-1" d="m254.44,60.14h20.35v5.81h-13.42v7.09h11.46v5.81h-11.46v11.9h-6.93v-30.61Z"/>
  </g>
  <g>
    <path class="cls-1" d="m60.22,190.86h14.47v4.14h-9.53v4.38h8.1v4.14h-8.1v5.02h9.86v4.14h-14.8v-21.83Z"/>
    <path class="cls-1" d="m79.13,210.54l2.1-3.07c2.04,1.27,4.33,1.97,6.71,1.97,1.83,0,2.63-.61,2.63-1.42,0-.92-.8-1.26-4.07-1.95-4.52-.97-6.31-2.62-6.31-5.19,0-3.1,2.89-5.2,7.63-5.2,2.96,0,5.46,1.17,7.19,2.27l-2.21,2.96c-1.68-1.01-3.6-1.59-5.43-1.59-1.54,0-2.3.55-2.3,1.33,0,.92,1.02,1.14,3.84,1.77,5.13,1.15,6.55,2.61,6.55,5.31,0,3.01-2.87,5.36-8.2,5.36-2.96,0-6.03-1.15-8.13-2.55Z"/>
    <path class="cls-1" d="m103.43,205.8v-5.87h-4.19v-3.67l4.41-.19.63-5.08h4.08v5.08h7v3.86h-7v5.8c0,2.53,1.07,3.48,3.49,3.48,1.24,0,2.3-.25,3.28-.59l.89,3.57c-1.47.44-3.22.9-5.43.9-5.29,0-7.17-2.93-7.17-7.29Z"/>
    <path class="cls-1" d="m123.97,209.15c0-2.18,1.59-3.93,3.9-3.93s3.9,1.75,3.9,3.93-1.59,3.93-3.9,3.93-3.9-1.72-3.9-3.93Z"/>
  </g>
  <g>
    <path class="cls-1" d="m325.63,208.71h5.73v-12.29h-4.72v-3.07c2.88-.43,4.38-.96,6.02-1.94h3.62v17.29h4.84v3.98h-15.49v-3.98Z"/>
    <path class="cls-1" d="m345.31,210.53l2.61-2.95c.88.81,2.32,1.53,3.75,1.53,2.72,0,5.1-1.89,5.1-7.55,0-5.28-1.99-6.84-4.01-6.84-1.7,0-3.24,1.02-3.24,3.42,0,2.17,1.27,3.1,3.15,3.1,1.29,0,2.73-.62,4.06-2.29l.22,3.22c-1.55,1.62-3.7,2.55-5.35,2.55-3.71,0-6.58-2.07-6.58-6.57s3.56-7.13,7.63-7.13c4.37,0,8.62,3.08,8.62,10.55,0,7.95-4.46,11.53-9.16,11.53-3.02,0-5.33-1.19-6.78-2.56Z"/>
    <path class="cls-1" d="m376.21,195.56h-10.67v-4.15h15.98v3.04c-5.39,5.93-6.24,9.93-6.64,18.23h-4.97c.42-7.08,1.86-11.52,6.3-17.12Z"/>
    <path class="cls-1" d="m386.33,208.71h5.73v-12.29h-4.72v-3.07c2.88-.43,4.39-.96,6.03-1.94h3.62v17.29h4.83v3.98h-15.49v-3.98Z"/>
  </g>
  <g>
    <polygon class="cls-1" points="181.73 275.63 176.32 280.17 128.1 249.83 133.5 245.29 181.73 275.63"/>
    <polygon class="cls-1" points="197.78 262.14 192.38 266.68 144.15 236.34 149.56 231.8 197.78 262.14"/>
    <polygon class="cls-1" points="229.8 235.25 224.39 239.79 176.17 209.45 181.57 204.91 229.8 235.25"/>
    <polygon class="cls-1" points="280.69 192.5 275.28 197.04 227.06 166.7 232.46 162.16 280.69 192.5"/>
    <polygon class="cls-1" points="299.4 176.78 294 181.32 245.77 150.97 251.18 146.43 299.4 176.78"/>
    <polygon class="cls-1" points="330.42 150.72 325.01 155.26 276.79 124.92 282.19 120.38 330.42 150.72"/>
    <polygon class="cls-1" points="212.44 249.83 207.03 254.37 158.81 224.03 164.21 219.49 212.44 249.83"/>
    <polygon class="cls-1" points="315.34 163.38 309.94 167.92 261.71 137.58 267.12 133.04 315.34 163.38"/>
    <g>
      <path class="cls-1" d="m137.71,250.69l-1.3,1.1c-.22.18-.6.2-.86.04h0c-.25-.16-.28-.44-.06-.62l1.3-1.1c.22-.18.6-.2.86-.04h0c.25.16.28.44.06.62Z"/>
      <path class="cls-1" d="m145.02,255.55l-1.3,1.1c-.22.18-.6.2-.86.04h0c-.25-.16-.28-.44-.06-.62l1.3-1.1c.22-.18.6-.2.86-.04h0c.25.16.28.44.06.62Z"/>
      <path class="cls-1" d="m168.2,270.13l-1.3,1.1c-.22.18-.6.2-.86.04h0c-.25-.16-.28-.44-.06-.62l1.3-1.1c.22-.18.6-.2.86-.04h0c.25.16.28.44.06.62Z"/>
      <path class="cls-1" d="m174.75,274.25l-1.3,1.1c-.22.18-.6.2-.86.04h0c-.25-.16-.28-.44-.06-.62l1.3-1.1c.22-.18.6-.2.86-.04h0c.25.16.28.44.06.62Z"/>
      <path class="cls-1" d="m153.77,237.21l-1.3,1.1c-.22.18-.6.2-.86.04h0c-.25-.16-.28-.44-.06-.62l1.3-1.1c.22-.18.6-.2.86-.04h0c.25.16.28.44.06.62Z"/>
      <path class="cls-1" d="m161.08,242.06l-1.3,1.1c-.22.18-.6.2-.86.04h0c-.25-.16-.28-.44-.06-.62l1.3-1.1c.22-.18.6-.2.86-.04h0c.25.16.28.44.06.62Z"/>
      <path class="cls-1" d="m184.25,256.64l-1.3,1.1c-.22.18-.6.2-.86.04h0c-.25-.16-.28-.44-.06-.62l1.3-1.1c.22-.18.6-.2.86-.04h0c.25.16.28.44.06.62Z"/>
      <path class="cls-1" d="m190.81,260.77l-1.3,1.1c-.22.18-.6.2-.86.04h0c-.25-.16-.28-.44-.06-.62l1.3-1.1c.22-.18.6-.2.86-.04h0c.25.16.28.44.06.62Z"/>
      <path class="cls-1" d="m168.43,224.89l-1.3,1.1c-.22.18-.6.2-.86.04h0c-.25-.16-.28-.44-.06-.62l1.3-1.1c.22-.18.6-.2.86-.04h0c.25.16.28.44.06.62Z"/>
      <path class="cls-1" d="m175.73,229.75l-1.3,1.1c-.22.18-.6.2-.86.04h0c-.25-.16-.28-.44-.06-.62l1.3-1.1c.22-.18.6-.2.86-.04h0c.25.16.28.44.06.62Z"/>
      <path class="cls-1" d="m198.91,244.33l-1.3,1.1c-.22.18-.6.2-.86.04h0c-.25-.16-.28-.44-.06-.62l1.3-1.1c.22-.18.6-.2.86-.04h0c.25.16.28.44.06.62Z"/>
      <path class="cls-1" d="m205.46,248.45l-1.3,1.1c-.22.18-.6.2-.86.04h0c-.25-.16-.28-.44-.06-.62l1.3-1.1c.22-.18.6-.2.86-.04h0c.25.16.28.44.06.62Z"/>
      <path class="cls-1" d="m185.78,210.31l-1.3,1.1c-.22.18-.6.2-.86.04h0c-.25-.16-.28-.44-.06-.62l1.3-1.1c.22-.18.6-.2.86-.04h0c.25.16.28.44.06.62Z"/>
      <path class="cls-1" d="m193.09,215.17l-1.3,1.1c-.22.18-.6.2-.86.04h0c-.25-.16-.28-.44-.06-.62l1.3-1.1c.22-.18.6-.2.86-.04h0c.25.16.28.44.06.62Z"/>
      <path class="cls-1" d="m216.27,229.75l-1.3,1.1c-.22.18-.6.2-.86.04h0c-.25-.16-.28-.44-.06-.62l1.3-1.1c.22-.18.6-.2.86-.04h0c.25.16.28.44.06.62Z"/>
      <path class="cls-1" d="m222.82,233.87l-1.3,1.1c-.22.18-.6.2-.86.04h0c-.25-.16-.28-.44-.06-.62l1.3-1.1c.22-.18.6-.2.86-.04h0c.25.16.28.44.06.62Z"/>
      <path class="cls-1" d="m236.67,167.56l-1.3,1.1c-.22.18-.6.2-.86.04h0c-.25-.16-.28-.44-.06-.62l1.3-1.1c.22-.18.6-.2.86-.04h0c.25.16.28.44.06.62Z"/>
      <path class="cls-1" d="m243.98,172.41l-1.3,1.1c-.22.18-.6.2-.86.04h0c-.25-.16-.28-.44-.06-.62l1.3-1.1c.22-.18.6-.2.86-.04h0c.25.16.28.44.06.62Z"/>
      <path class="cls-1" d="m267.16,187l-1.3,1.1c-.22.18-.6.2-.86.04h0c-.25-.16-.28-.44-.06-.62l1.3-1.1c.22-.18.6-.2.86-.04h0c.25.16.28.44.06.62Z"/>
      <path class="cls-1" d="m273.71,191.12l-1.3,1.1c-.22.18-.6.2-.86.04h0c-.25-.16-.28-.44-.06-.62l1.3-1.1c.22-.18.6-.2.86-.04h0c.25.16.28.44.06.62Z"/>
      <path class="cls-1" d="m255.39,151.84l-1.3,1.1c-.22.18-.6.2-.86.04h0c-.25-.16-.28-.44-.06-.62l1.3-1.1c.22-.18.6-.2.86-.04h0c.25.16.28.44.06.62Z"/>
      <path class="cls-1" d="m262.69,156.69l-1.3,1.1c-.22.18-.6.2-.86.04h0c-.25-.16-.28-.44-.06-.62l1.3-1.1c.22-.18.6-.2.86-.04h0c.25.16.28.44.06.62Z"/>
      <path class="cls-1" d="m285.87,171.27l-1.3,1.1c-.22.18-.6.2-.86.04h0c-.25-.16-.28-.44-.06-.62l1.3-1.1c.22-.18.6-.2.86-.04h0c.25.16.28.44.06.62Z"/>
      <path class="cls-1" d="m292.42,175.4l-1.3,1.1c-.22.18-.6.2-.86.04h0c-.25-.16-.28-.44-.06-.62l1.3-1.1c.22-.18.6-.2.86-.04h0c.25.16.28.44.06.62Z"/>
      <path class="cls-1" d="m271.33,138.45l-1.3,1.1c-.22.18-.6.2-.86.04h0c-.25-.16-.28-.44-.06-.62l1.3-1.1c.22-.18.6-.2.86-.04h0c.25.16.28.44.06.62Z"/>
      <path class="cls-1" d="m278.63,143.3l-1.3,1.1c-.22.18-.6.2-.86.04h0c-.25-.16-.28-.44-.06-.62l1.3-1.1c.22-.18.6-.2.86-.04h0c.25.16.28.44.06.62Z"/>
      <path class="cls-1" d="m301.81,157.88l-1.3,1.1c-.22.18-.6.2-.86.04h0c-.25-.16-.28-.44-.06-.62l1.3-1.1c.22-.18.6-.2.86-.04h0c.25.16.28.44.06.62Z"/>
      <path class="cls-1" d="m308.36,162.01l-1.3,1.1c-.22.18-.6.2-.86.04h0c-.25-.16-.28-.44-.06-.62l1.3-1.1c.22-.18.6-.2.86-.04h0c.25.16.28.44.06.62Z"/>
      <path class="cls-1" d="m286.4,125.78l-1.3,1.1c-.22.18-.6.2-.86.04h0c-.25-.16-.28-.44-.06-.62l1.3-1.1c.22-.18.6-.2.86-.04h0c.25.16.28.44.06.62Z"/>
      <path class="cls-1" d="m293.71,130.64l-1.3,1.1c-.22.18-.6.2-.86.04h0c-.25-.16-.28-.44-.06-.62l1.3-1.1c.22-.18.6-.2.86-.04h0c.25.16.28.44.06.62Z"/>
      <path class="cls-1" d="m316.89,145.22l-1.3,1.1c-.22.18-.6.2-.86.04h0c-.25-.16-.28-.44-.06-.62l1.3-1.1c.22-.18.6-.2.86-.04h0c.25.16.28.44.06.62Z"/>
      <path class="cls-1" d="m323.44,149.34l-1.3,1.1c-.22.18-.6.2-.86.04h0c-.25-.16-.28-.44-.06-.62l1.3-1.1c.22-.18.6-.2.86-.04h0c.25.16.28.44.06.62Z"/>
    </g>
    <polygon class="cls-1" points="309.5 113.52 121.65 271.32 117.91 268.97 305.75 111.16 309.5 113.52"/>
    <polygon class="cls-1" points="339.58 132.45 151.74 290.25 147.99 287.89 335.83 130.09 339.58 132.45"/>
  </g>
  <g>
    <polygon class="cls-1" points="291.43 269.3 297.75 273.16 338.79 237.67 332.46 233.81 291.43 269.3"/>
    <polygon class="cls-1" points="272.65 257.82 278.97 261.69 320.01 226.19 313.68 222.33 272.65 257.82"/>
    <polygon class="cls-1" points="235.2 234.94 241.52 238.8 282.56 203.31 276.23 199.44 235.2 234.94"/>
    <polygon class="cls-1" points="175.67 198.56 181.99 202.42 223.03 166.93 216.71 163.06 175.67 198.56"/>
    <polygon class="cls-1" points="153.78 185.18 160.1 189.04 201.14 153.55 194.81 149.69 153.78 185.18"/>
    <polygon class="cls-1" points="117.5 163.01 123.82 166.87 164.86 131.38 158.53 127.51 117.5 163.01"/>
    <polygon class="cls-1" points="255.5 247.35 261.82 251.21 302.86 215.72 296.54 211.85 255.5 247.35"/>
    <polygon class="cls-1" points="135.13 173.78 141.45 177.65 182.49 142.15 176.17 138.29 135.13 173.78"/>
    <g>
      <path class="cls-1" d="m329.48,239.63l1.53.93c.26.16.64.13.86-.05h0c.22-.19.18-.46-.07-.62l-1.53-.93c-.26-.16-.64-.13-.86.05h0c-.22.19-.18.46.07.62Z"/>
      <path class="cls-1" d="m323.32,245.26l1.53.93c.26.16.64.13.86-.05h0c.22-.19.18-.46-.07-.62l-1.53-.93c-.26-.16-.64-.13-.86.05h0c-.22.19-.18.46.07.62Z"/>
      <path class="cls-1" d="m303.59,262.32l1.53.93c.26.16.64.13.86-.05h0c.22-.19.18-.46-.07-.62l-1.53-.93c-.26-.16-.64-.13-.86.05h0c-.22.19-.18.46.07.62Z"/>
      <path class="cls-1" d="m298.02,267.14l1.53.93c.26.16.64.13.86-.05h0c.22-.19.18-.46-.07-.62l-1.53-.93c-.26-.16-.64-.13-.86.05h0c-.22.19-.18.46.07.62Z"/>
      <path class="cls-1" d="m310.7,228.15l1.53.93c.26.16.64.13.86-.05h0c.22-.19.18-.46-.07-.62l-1.53-.93c-.26-.16-.64-.13-.86.05h0c-.22.19-.18.46.07.62Z"/>
      <path class="cls-1" d="m304.54,233.78l1.53.93c.26.16.64.13.86-.05h0c.22-.19.18-.46-.07-.62l-1.53-.93c-.26-.16-.64-.13-.86.05h0c-.22.19-.18.46.07.62Z"/>
      <path class="cls-1" d="m284.81,250.84l1.53.93c.26.16.64.13.86-.05h0c.22-.19.18-.46-.07-.62l-1.53-.93c-.26-.16-.64-.13-.86.05h0c-.22.19-.18.46.07.62Z"/>
      <path class="cls-1" d="m279.24,255.66l1.53.93c.26.16.64.13.86-.05h0c.22-.19.18-.46-.07-.62l-1.53-.93c-.26-.16-.64-.13-.86.05h0c-.22.19-.18.46.07.62Z"/>
      <path class="cls-1" d="m293.55,217.67l1.53.93c.26.16.64.13.86-.05h0c.22-.19.18-.46-.07-.62l-1.53-.93c-.26-.16-.64-.13-.86.05h0c-.22.19-.18.46.07.62Z"/>
      <path class="cls-1" d="m287.39,223.31l1.53.93c.26.16.64.13.86-.05h0c.22-.19.18-.46-.07-.62l-1.53-.93c-.26-.16-.64-.13-.86.05h0c-.22.19-.18.46.07.62Z"/>
      <path class="cls-1" d="m267.67,240.36l1.53.93c.26.16.64.13.86-.05h0c.22-.19.18-.46-.07-.62l-1.53-.93c-.26-.16-.64-.13-.86.05h0c-.22.19-.18.46.07.62Z"/>
      <path class="cls-1" d="m262.09,245.19l1.53.93c.26.16.64.13.86-.05h0c.22-.19.18-.46-.07-.62l-1.53-.93c-.26-.16-.64-.13-.86.05h0c-.22.19-.18.46.07.62Z"/>
      <path class="cls-1" d="m273.25,205.27l1.53.93c.26.16.64.13.86-.05h0c.22-.19.18-.46-.07-.62l-1.53-.93c-.26-.16-.64-.13-.86.05h0c-.22.19-.18.46.07.62Z"/>
      <path class="cls-1" d="m267.09,210.9l1.53.93c.26.16.64.13.86-.05h0c.22-.19.18-.46-.07-.62l-1.53-.93c-.26-.16-.64-.13-.86.05h0c-.22.19-.18.46.07.62Z"/>
      <path class="cls-1" d="m247.36,227.95l1.53.93c.26.16.64.13.86-.05h0c.22-.19.18-.46-.07-.62l-1.53-.93c-.26-.16-.64-.13-.86.05h0c-.22.19-.18.46.07.62Z"/>
      <path class="cls-1" d="m241.79,232.78l1.53.93c.26.16.64.13.86-.05h0c.22-.19.18-.46-.07-.62l-1.53-.93c-.26-.16-.64-.13-.86.05h0c-.22.19-.18.46.07.62Z"/>
      <path class="cls-1" d="m213.72,168.88l1.53.93c.26.16.64.13.86-.05h0c.22-.19.18-.46-.07-.62l-1.53-.93c-.26-.16-.64-.13-.86.05h0c-.22.19-.18.46.07.62Z"/>
      <path class="cls-1" d="m207.56,174.52l1.53.93c.26.16.64.13.86-.05h0c.22-.19.18-.46-.07-.62l-1.53-.93c-.26-.16-.64-.13-.86.05h0c-.22.19-.18.46.07.62Z"/>
      <path class="cls-1" d="m187.84,191.57l1.53.93c.26.16.64.13.86-.05h0c.22-.19.18-.46-.07-.62l-1.53-.93c-.26-.16-.64-.13-.86.05h0c-.22.19-.18.46.07.62Z"/>
      <path class="cls-1" d="m182.26,196.4l1.53.93c.26.16.64.13.86-.05h0c.22-.19.18-.46-.07-.62l-1.53-.93c-.26-.16-.64-.13-.86.05h0c-.22.19-.18.46.07.62Z"/>
      <path class="cls-1" d="m191.83,155.51l1.53.93c.26.16.64.13.86-.05h0c.22-.19.18-.46-.07-.62l-1.53-.93c-.26-.16-.64-.13-.86.05h0c-.22.19-.18.46.07.62Z"/>
      <path class="cls-1" d="m185.67,161.14l1.53.93c.26.16.64.13.86-.05h0c.22-.19.18-.46-.07-.62l-1.53-.93c-.26-.16-.64-.13-.86.05h0c-.22.19-.18.46.07.62Z"/>
      <path class="cls-1" d="m165.94,178.2l1.53.93c.26.16.64.13.86-.05h0c.22-.19.18-.46-.07-.62l-1.53-.93c-.26-.16-.64-.13-.86.05h0c-.22.19-.18.46.07.62Z"/>
      <path class="cls-1" d="m160.37,183.02l1.53.93c.26.16.64.13.86-.05h0c.22-.19.18-.46-.07-.62l-1.53-.93c-.26-.16-.64-.13-.86.05h0c-.22.19-.18.46.07.62Z"/>
      <path class="cls-1" d="m173.18,144.11l1.53.93c.26.16.64.13.86-.05h0c.22-.19.18-.46-.07-.62l-1.53-.93c-.26-.16-.64-.13-.86.05h0c-.22.19-.18.46.07.62Z"/>
      <path class="cls-1" d="m167.02,149.74l1.53.93c.26.16.64.13.86-.05h0c.22-.19.18-.46-.07-.62l-1.53-.93c-.26-.16-.64-.13-.86.05h0c-.22.19-.18.46.07.62Z"/>
      <path class="cls-1" d="m147.3,166.8l1.53.93c.26.16.64.13.86-.05h0c.22-.19.18-.46-.07-.62l-1.53-.93c-.26-.16-.64-.13-.86.05h0c-.22.19-.18.46.07.62Z"/>
      <path class="cls-1" d="m141.72,171.62l1.53.93c.26.16.64.13.86-.05h0c.22-.19.18-.46-.07-.62l-1.53-.93c-.26-.16-.64-.13-.86.05h0c-.22.19-.18.46.07.62Z"/>
      <path class="cls-1" d="m155.55,133.33l1.53.93c.26.16.64.13.86-.05h0c.22-.19.18-.46-.07-.62l-1.53-.93c-.26-.16-.64-.13-.86.05h0c-.22.19-.18.46.07.62Z"/>
      <path class="cls-1" d="m149.39,138.97l1.53.93c.26.16.64.13.86-.05h0c.22-.19.18-.46-.07-.62l-1.53-.93c-.26-.16-.64-.13-.86.05h0c-.22.19-.18.46.07.62Z"/>
      <path class="cls-1" d="m129.66,156.02l1.53.93c.26.16.64.13.86-.05h0c.22-.19.18-.46-.07-.62l-1.53-.93c-.26-.16-.64-.13-.86.05h0c-.22.19-.18.46.07.62Z"/>
      <path class="cls-1" d="m124.09,160.85l1.53.93c.26.16.64.13.86-.05h0c.22-.19.18-.46-.07-.62l-1.53-.93c-.26-.16-.64-.13-.86.05h0c-.22.19-.18.46.07.62Z"/>
    </g>
    <polygon class="cls-1" points="130.08 123.87 349.81 258.16 353 255.4 133.27 121.12 130.08 123.87"/>
    <polygon class="cls-1" points="104.48 146.01 324.22 280.3 327.4 277.54 107.67 143.26 104.48 146.01"/>
  </g>
</svg>