<?xml version="1.0" encoding="UTF-8"?>
<svg id="Layer_17" data-name="Layer 17" xmlns="http://www.w3.org/2000/svg" viewBox="0 0 466.84 407.13">
  <defs>
    <style>
      .cls-1 {
        fill: #fff;
      }

      .cls-1, .cls-2 {
        stroke-width: 0px;
      }

      .cls-2, .cls-3 {
        fill: #231f20;
      }

      .cls-3 {
        stroke: #fff;
        stroke-miterlimit: 10;
      }
    </style>
  </defs>
  <polygon class="cls-3" points="346.02 6.26 118.48 6.26 4.72 203.31 118.48 400.36 346.02 400.36 459.79 203.31 346.02 6.26"/>
  <g>
    <path class="cls-1" d="m174.52,69.77c1.88-2.19,2.84-3.28,4.8-5.45,2.88,1.82,5.97,2.57,8.82,2.16,4.39-.64,6.48-2.3,5.95-6.66-.7-5.75-1.05-8.63-1.75-14.39-7.21.88-10.81,1.42-17.97,2.71-.43-2.39-.65-3.59-1.08-5.99,9.54-1.77,19.32-3.08,28.99-3.89.75,8.43,1.12,12.65,1.87,21.09.55,6.26-3.1,11.6-14.79,13.28-4.68.67-10.37.24-14.83-2.87Z"/>
    <path class="cls-1" d="m216.22,37.35c10.41-.53,21.03-.5,31.44.08-.12,2.43-.19,3.64-.31,6.07-8.14-.41-12.21-.49-20.35-.39.04,2.97.06,4.46.09,7.43,6.79-.09,10.19-.04,16.98.24-.1,2.43-.15,3.65-.25,6.08-6.65-.28-9.99-.32-16.65-.24.06,4.98.1,7.47.16,12.46-3.86.05-5.79.11-9.65.28-.49-10.67-.97-21.34-1.46-32.02Z"/>
    <path class="cls-1" d="m260.02,38.3c10.41.87,20.96,2.33,31.22,4.31-.45,2.39-.67,3.59-1.12,5.98-8.04-1.51-12.07-2.13-20.17-3.12-.36,2.95-.54,4.42-.9,7.37,6.75.83,10.12,1.33,16.83,2.53-.43,2.4-.64,3.59-1.07,5.99-6.58-1.17-9.88-1.67-16.51-2.48-.61,4.95-.91,7.42-1.51,12.37-3.84-.47-5.76-.67-9.61-1.02.95-10.64,1.9-21.28,2.85-31.92Z"/>
    <path class="cls-1" d="m128.87,116.36c3.39-1.4,5.09-2.07,8.51-3.35,5.34,4.81,7.92,7.27,12.91,12.31,2.1,2.26,3.14,3.4,5.18,5.7.07-.02.11-.04.18-.06-1.39-3.1-3.53-7.12-4.72-10.71-1.42-4.3-2.13-6.45-3.55-10.76,3.21-1.06,4.83-1.57,8.07-2.52l9.08,30.74c-3.06.9-4.59,1.38-7.63,2.39-4.77-5.14-7.25-7.66-12.37-12.59-2.15-2.19-3.25-3.28-5.46-5.44-.07.03-.11.04-.19.07,1.63,3.17,3.88,6.91,5.21,10.44,1.61,4.25,2.41,6.38,4.01,10.64-2.8,1.06-4.19,1.61-6.96,2.75-4.09-9.87-8.18-19.74-12.27-29.61Z"/>
    <path class="cls-1" d="m169.48,129.29c-1.39-5.29,2.8-9.57,15.59-12.67-.69-2.09-2.8-3.07-6.51-2.29-2.66.56-5.12,2.05-7.85,4.14-1.61-1.56-2.42-2.33-4.06-3.86,3.35-2.86,7.54-5.26,12.34-6.25,7.95-1.62,13.34,1.24,14.47,8.63.84,5.51,1.26,8.27,2.11,13.79-2.49.38-3.74.59-6.22,1.04-.41-1.04-.62-1.56-1.04-2.6-.08.01-.12.02-.2.04-2.28,2.3-5.17,4.4-8.43,5.13-5.14,1.16-9.15-1.11-10.2-5.08Zm-2.5-25.43c-.54-2.18.98-4.33,3.79-4.97,2.79-.64,5.11.64,5.57,2.84.46,2.2-1.1,4.27-3.8,4.89-2.72.62-5.01-.57-5.55-2.75Zm19.63,20.99c-.29-1.57-.44-2.36-.73-3.93-7.83,1.83-9.56,3.95-9.09,5.98.35,1.53,1.93,1.94,4.12,1.48,2.32-.5,4.09-1.86,5.71-3.52Zm-6.7-23.85c-.43-2.21,1.21-4.28,4.02-4.78,2.83-.5,5.06.89,5.41,3.11.35,2.22-1.29,4.21-4.03,4.69-2.73.48-4.97-.82-5.4-3.03Z"/>
    <path class="cls-1" d="m201.52,126.77c1.09-1.96,1.65-2.93,2.8-4.88,3.49,1.49,7.19,2.18,10.97,1.93,2.91-.19,4.15-1.13,4.09-2.33-.07-1.36-1.38-1.84-6.74-2.45-7.43-.85-10.69-2.84-11.13-6.58-.53-4.51,4.07-8.25,12.26-8.8,5.11-.34,9.5,1.23,12.48,2.8-1.48,1.77-2.2,2.65-3.62,4.44-2.86-1.39-6.17-2.07-9.27-1.86-2.6.18-3.82,1.1-3.72,2.25.11,1.35,1.85,1.48,6.59,2.13,8.61,1.18,10.95,3.42,11.01,7.39.07,4.42-4.35,7.84-12.64,8.43-4.61.32-9.52-.85-13.08-2.48Z"/>
    <path class="cls-1" d="m233.48,124.95c1.34-1.79,2.03-2.68,3.42-4.46,3.25,1.94,6.82,3.13,10.61,3.39,2.91.2,4.27-.56,4.37-1.76.12-1.35-1.13-2.01-6.36-3.33-7.25-1.84-10.2-4.25-10.13-8.01.08-4.55,5.13-7.63,13.31-7.08,5.11.35,9.26,2.5,12,4.45-1.7,1.55-2.54,2.34-4.19,3.92-2.65-1.77-5.84-2.88-8.94-3.08-2.6-.17-3.93.58-3.99,1.73-.07,1.35,1.64,1.72,6.24,2.99,8.38,2.32,10.4,4.86,9.93,8.8-.52,4.39-5.37,7.19-13.67,6.65-4.61-.3-9.32-2.12-12.61-4.21Z"/>
    <path class="cls-1" d="m263.25,138.36c1.15-1.93,1.74-2.89,2.93-4.8,1.92,1.18,3.49,1.72,4.96,1.98,3.6.63,5-.69,5.68-4.16,1.36-6.89,2.04-10.33,3.4-17.22-4.45-.88-6.68-1.27-11.15-1.94.34-2.24.51-3.37.85-5.61,7.94,1.2,11.9,1.96,19.76,3.78-2.07,8.94-3.11,13.4-5.18,22.34-1.35,5.8-4.97,10.08-13.9,8.49-3.03-.54-5.35-1.59-7.35-2.86Zm17.86-38.19c.5-2.6,3.29-3.96,6.67-3.24,3.38.72,5.39,3.1,4.78,5.68-.61,2.59-3.37,3.74-6.64,3.04-3.27-.7-5.31-2.87-4.81-5.48Z"/>
    <path class="cls-1" d="m299.03,125.42c2.23-7.81,10.38-10.36,17.64-7.83,7.25,2.53,12.12,9.62,9.01,17.13-3.1,7.48-10.89,9.3-17.43,7.02-6.54-2.28-11.44-8.54-9.22-16.32Zm9.03-18.03c.65-2.15,3.06-3.22,5.82-2.34,2.74.88,4.1,3.16,3.37,5.29s-3.14,3.11-5.79,2.25c-2.68-.86-4.04-3.05-3.4-5.2Zm9.77,24.23c1.48-3.96.59-7.24-3.08-8.52-3.67-1.28-6.4.73-7.7,4.76-1.3,4.01-.34,7.15,3.12,8.36,3.47,1.21,6.18-.65,7.66-4.6Zm2.89-20.07c.75-2.12,3.24-3.06,5.94-2.04,2.72,1.03,3.96,3.37,3.13,5.46-.83,2.09-3.28,2.95-5.92,1.95-2.63-.99-3.9-3.26-3.15-5.37Z"/>
  </g>
  <g>
    <path class="cls-1" d="m60.7,204.92h11.66v3.34h-7.68v3.53h6.52v3.34h-6.52v4.05h7.95v3.34h-11.93v-17.59Z"/>
    <path class="cls-1" d="m75.94,220.78l1.69-2.48c1.65,1.02,3.49,1.59,5.4,1.59,1.47,0,2.12-.49,2.12-1.15,0-.75-.65-1.02-3.28-1.57-3.64-.78-5.09-2.12-5.09-4.18,0-2.5,2.33-4.19,6.15-4.19,2.39,0,4.4.94,5.8,1.83l-1.78,2.38c-1.35-.82-2.9-1.28-4.38-1.28-1.24,0-1.85.44-1.85,1.07,0,.74.82.92,3.09,1.43,4.13.93,5.28,2.1,5.28,4.28,0,2.42-2.31,4.32-6.61,4.32-2.39,0-4.86-.93-6.55-2.05Z"/>
    <path class="cls-1" d="m95.52,216.96v-4.73h-3.37v-2.96l3.55-.15.51-4.09h3.28v4.09h5.64v3.11h-5.64v4.68c0,2.04.86,2.8,2.81,2.8,1,0,1.86-.2,2.64-.48l.72,2.87c-1.19.35-2.59.72-4.38.72-4.26,0-5.78-2.36-5.78-5.87Z"/>
    <path class="cls-1" d="m112.09,219.66c0-1.76,1.28-3.17,3.14-3.17s3.14,1.41,3.14,3.17-1.28,3.17-3.14,3.17-3.14-1.38-3.14-3.17Z"/>
  </g>
  <g>
    <path class="cls-1" d="m345.17,222.45c4.92-4.12,8.22-7.03,8.22-9.5,0-1.66-1.03-2.57-2.83-2.57-1.37,0-2.48.84-3.45,1.74l-2.13-2.15c1.78-1.8,3.5-2.72,6.12-2.72,3.61,0,6.06,2.16,6.06,5.46,0,2.89-2.97,5.96-6.29,8.86.98-.1,2.23-.19,3.12-.19h4.06v3.34h-12.88v-2.28Z"/>
    <path class="cls-1" d="m361.43,216.08c0-5.83,2.62-8.82,6.59-8.82s6.59,2.99,6.59,8.82-2.62,8.97-6.59,8.97-6.59-3.15-6.59-8.97Zm9.64,0c0-4.45-1.35-5.75-3.05-5.75s-3.05,1.29-3.05,5.75,1.35,5.89,3.05,5.89,3.05-1.44,3.05-5.89Zm-5.08-.05c0-1.24.88-2.05,2.02-2.05s2.02.81,2.02,2.05-.88,2.06-2.02,2.06-2.02-.81-2.02-2.06Z"/>
    <path class="cls-1" d="m377.73,216.08c0-5.83,2.62-8.82,6.59-8.82s6.59,2.99,6.59,8.82-2.62,8.97-6.59,8.97-6.59-3.15-6.59-8.97Zm9.64,0c0-4.45-1.35-5.75-3.05-5.75s-3.05,1.29-3.05,5.75,1.35,5.89,3.05,5.89,3.05-1.44,3.05-5.89Zm-5.08-.05c0-1.24.88-2.05,2.02-2.05s2.02.81,2.02,2.05-.88,2.06-2.02,2.06-2.02-.81-2.02-2.06Z"/>
    <path class="cls-1" d="m394.04,216.08c0-5.83,2.62-8.82,6.59-8.82s6.59,2.99,6.59,8.82-2.62,8.97-6.59,8.97-6.59-3.15-6.59-8.97Zm9.64,0c0-4.45-1.35-5.75-3.05-5.75s-3.05,1.29-3.05,5.75,1.35,5.89,3.05,5.89,3.05-1.44,3.05-5.89Zm-5.08-.05c0-1.24.88-2.05,2.02-2.05s2.02.81,2.02,2.05-.88,2.06-2.02,2.06-2.02-.81-2.02-2.06Z"/>
  </g>
  <polygon class="cls-1" points="117.43 399.42 130.68 400.36 212.05 158.84 208.36 158.18 117.43 399.42"/>
  <polygon class="cls-1" points="343.98 399.42 330.72 400.36 249.35 158.84 253.04 158.18 343.98 399.42"/>
  <polygon class="cls-1" points="328.61 267.65 337.17 281.83 124.97 281.41 132.36 267.41 328.61 267.65"/>
  <polygon class="cls-2" points="149.73 271.3 146.88 277.17 152.3 277.17 154.29 271.3 149.73 271.3"/>
  <polygon class="cls-1" points="351.11 299.04 361.65 316.16 100.5 315.66 109.59 298.76 351.11 299.04"/>
  <polygon class="cls-2" points="310.93 271.54 313.78 277.4 308.37 277.4 306.37 271.54 310.93 271.54"/>
  <polygon class="cls-2" points="275.63 271.54 280.47 271.54 282.75 277.4 275.63 277.4 275.63 271.54"/>
  <polygon class="cls-2" points="185.93 271.54 181.09 271.54 178.81 277.4 185.93 277.4 185.93 271.54"/>
  <polygon class="cls-2" points="130.97 303.46 127.47 310.54 134.13 310.54 136.58 303.46 130.97 303.46"/>
  <polygon class="cls-1" points="374.71 336.05 387.32 356.6 74.83 355.99 85.71 335.71 374.71 336.05"/>
  <polygon class="cls-2" points="329.35 303.74 332.86 310.82 326.2 310.82 323.74 303.74 329.35 303.74"/>
  <polygon class="cls-2" points="285.91 303.74 291.87 303.74 294.67 310.82 285.91 310.82 285.91 303.74"/>
  <polygon class="cls-2" points="175.52 303.74 169.56 303.74 166.76 310.82 175.52 310.82 175.52 303.74"/>
  <polygon class="cls-2" points="111.29 341.35 107.09 349.84 115.06 349.84 118 341.35 111.29 341.35"/>
  <polygon class="cls-1" points="310.22 241.88 317.33 254.03 141.08 253.67 147.22 241.69 310.22 241.88"/>
  <polygon class="cls-2" points="348.68 341.69 352.87 350.18 344.9 350.18 341.97 341.69 348.68 341.69"/>
  <polygon class="cls-2" points="296.69 341.69 303.82 341.69 307.18 350.18 296.69 350.18 296.69 341.69"/>
  <polygon class="cls-2" points="164.59 341.69 157.46 341.69 154.11 350.18 164.59 350.18 164.59 341.69"/>
  <polygon class="cls-2" points="161.65 245.02 159.28 250.04 163.78 250.04 165.43 245.02 161.65 245.02"/>
  <polygon class="cls-1" points="293.2 218.25 298.91 227.86 157.4 227.57 162.32 218.09 293.2 218.25"/>
  <polygon class="cls-2" points="295.53 245.22 297.9 250.24 293.4 250.24 291.75 245.22 295.53 245.22"/>
  <polygon class="cls-2" points="266.21 245.22 270.24 245.22 272.13 250.24 266.21 250.24 266.21 245.22"/>
  <polygon class="cls-2" points="191.71 245.22 187.69 245.22 185.8 250.24 191.71 250.24 191.71 245.22"/>
  <polygon class="cls-2" points="173.91 220.73 172.01 224.7 175.62 224.7 176.95 220.73 173.91 220.73"/>
  <polygon class="cls-1" points="272.65 174.88 276.43 182.54 182.8 182.32 186.06 174.76 272.65 174.88"/>
  <polygon class="cls-2" points="281.41 220.89 283.31 224.86 279.7 224.86 278.37 220.89 281.41 220.89"/>
  <polygon class="cls-2" points="257.87 220.89 261.1 220.89 262.61 224.86 257.87 224.86 257.87 220.89"/>
  <polygon class="cls-2" points="198.05 220.89 194.82 220.89 193.3 224.86 198.05 224.86 198.05 220.89"/>
  <polygon class="cls-2" points="193.73 176.86 192.47 180.03 194.86 180.03 195.74 176.86 193.73 176.86"/>
  <polygon class="cls-1" points="284.24 196.19 289 205.27 170.93 205 175.04 196.04 284.24 196.19"/>
  <polygon class="cls-2" points="264.85 176.99 266.1 180.15 263.72 180.15 262.84 176.99 264.85 176.99"/>
  <polygon class="cls-2" points="247.9 176.99 250.04 176.99 251.04 180.15 247.9 180.15 247.9 176.99"/>
  <polygon class="cls-2" points="211.07 176.99 208.94 176.99 207.93 180.15 211.07 180.15 211.07 176.99"/>
  <polygon class="cls-2" points="184.71 198.53 183.12 202.28 186.13 202.28 187.24 198.53 184.71 198.53"/>
  <polygon class="cls-1" points="267.4 158.22 270.49 163.98 193.84 163.81 196.51 158.13 267.4 158.22"/>
  <polygon class="cls-2" points="274.4 198.68 275.98 202.43 272.97 202.43 271.86 198.68 274.4 198.68"/>
  <polygon class="cls-2" points="254.76 198.68 257.45 198.68 258.72 202.43 254.76 202.43 254.76 198.68"/>
  <polygon class="cls-2" points="204.85 198.68 202.15 198.68 200.88 202.43 204.85 202.43 204.85 198.68"/>
  <polygon class="cls-2" points="202.78 159.71 201.75 162.09 203.71 162.09 204.43 159.71 202.78 159.71"/>
  <polygon class="cls-2" points="261.01 159.8 262.04 162.19 260.08 162.19 259.36 159.8 261.01 159.8"/>
  <polygon class="cls-1" points="245.51 159.8 247.26 159.8 248.08 162.19 245.51 162.19 245.51 159.8"/>
  <polygon class="cls-2" points="218.6 159.8 216.86 159.8 216.03 162.19 218.6 162.19 218.6 159.8"/>
</svg>