<?xml version="1.0" encoding="UTF-8"?>
<svg id="Layer_15" data-name="Layer 15" xmlns="http://www.w3.org/2000/svg" viewBox="0 0 465.65 406">
  <defs>
    <style>
      .cls-1 {
        fill: #e5d9b6;
      }

      .cls-1, .cls-2 {
        stroke: #341a0d;
        stroke-miterlimit: 10;
      }

      .cls-3 {
        fill: #341a0d;
      }

      .cls-3, .cls-4 {
        stroke-width: 0px;
      }

      .cls-2 {
        fill: #5e3914;
        stroke-width: .25px;
      }

      .cls-4 {
        fill: #cb9542;
      }
    </style>
  </defs>
  <polygon class="cls-1" points="346.55 6.26 118.73 6.26 4.82 203.56 118.73 400.86 346.55 400.86 460.47 203.56 346.55 6.26"/>
  <g>
    <path class="cls-3" d="m152.82,313.22h7.1l6.44,15.22,2.62,6.73h.16c-.31-3.22-.96-7.51-.96-11.12v-10.82h6.6v30.61h-7.1l-6.44-15.25-2.62-6.69h-.16c.31,3.38.96,7.48.96,11.09v10.86h-6.6v-30.61Z"/>
    <path class="cls-3" d="m180.96,337.37c0-5.22,4.32-7.88,15.33-8.55-.24-2.08-1.81-3.36-4.94-3.36-2.25,0-4.48.87-7.1,2.18l-2.46-4.53c3.23-1.84,6.95-3.15,10.9-3.15,6.55,0,10.52,3.41,10.52,10.55v13.32h-5.65l-.5-2.63h-.17c-2.35,1.77-5.27,3.19-8.26,3.19-4.71,0-7.66-3.11-7.66-7.02Zm3.18-24.13c0-2.15,1.54-3.78,3.77-3.78s3.77,1.64,3.77,3.78-1.55,3.78-3.77,3.78-3.77-1.64-3.77-3.78Zm12.14,23.57v-3.82c-6.85.34-8.7,1.83-8.7,3.82,0,1.5,1.26,2.23,3.22,2.23,2.08,0,3.83-.95,5.48-2.23Zm-1.74-23.57c0-2.15,1.55-3.78,3.77-3.78s3.77,1.64,3.77,3.78-1.54,3.78-3.77,3.78-3.77-1.64-3.77-3.78Z"/>
    <path class="cls-3" d="m208.93,340.82l2.94-4.31c2.87,1.78,6.07,2.76,9.4,2.76,2.56,0,3.7-.85,3.7-2,0-1.3-1.13-1.77-5.7-2.74-6.34-1.36-8.86-3.68-8.86-7.28,0-4.34,4.05-7.29,10.71-7.29,4.15,0,7.66,1.63,10.09,3.18l-3.1,4.15c-2.35-1.42-5.05-2.23-7.62-2.23-2.16,0-3.23.77-3.23,1.86,0,1.29,1.43,1.6,5.38,2.48,7.19,1.61,9.19,3.66,9.19,7.45,0,4.22-4.02,7.52-11.5,7.52-4.16,0-8.45-1.61-11.39-3.57Z"/>
    <path class="cls-3" d="m237.3,340.82l2.94-4.31c2.87,1.78,6.07,2.76,9.4,2.76,2.56,0,3.7-.85,3.7-2,0-1.3-1.13-1.77-5.7-2.74-6.34-1.36-8.86-3.68-8.86-7.28,0-4.34,4.05-7.29,10.71-7.29,4.15,0,7.66,1.63,10.09,3.18l-3.1,4.15c-2.35-1.42-5.05-2.23-7.62-2.23-2.16,0-3.23.77-3.23,1.86,0,1.29,1.43,1.6,5.38,2.48,7.19,1.61,9.19,3.66,9.19,7.45,0,4.22-4.02,7.52-11.5,7.52-4.16,0-8.45-1.61-11.39-3.57Z"/>
    <path class="cls-3" d="m265.15,351.45l2.01-4.95c1.88.83,3.37,1.1,4.74,1.1,3.32,0,4.34-1.52,4.34-4.9v-16.76h-9.38v-5.42h16.3v21.9c0,5.69-2.38,10.61-10.83,10.61-2.87,0-5.17-.66-7.17-1.58Zm9.64-38.79c0-2.53,1.92-4.29,4.59-4.29s4.59,1.76,4.59,4.29-1.92,4.23-4.59,4.23-4.59-1.68-4.59-4.23Z"/>
    <path class="cls-3" d="m293.75,332.19c0-7.76,5.73-12.23,11.88-12.23s11.88,4.47,11.88,12.23-5.73,12.2-11.88,12.2-11.88-4.47-11.88-12.2Zm2.91-18.95c0-2.15,1.54-3.78,3.77-3.78s3.77,1.64,3.77,3.78-1.55,3.78-3.77,3.78-3.77-1.64-3.77-3.78Zm13.78,18.95c0-4.04-1.62-6.65-4.81-6.65s-4.81,2.61-4.81,6.65,1.62,6.62,4.81,6.62,4.81-2.59,4.81-6.62Zm-3.38-18.95c0-2.15,1.55-3.78,3.77-3.78s3.77,1.64,3.77,3.78-1.54,3.78-3.77,3.78-3.77-1.64-3.77-3.78Z"/>
  </g>
  <g>
    <path class="cls-3" d="m195.03,86.26l3.98-4.29c1.75,2.18,3.82,3.36,5.84,3.36,3.11,0,4.71-1.36,4.71-5.55v-13.84h-11.95v-5.81h18.89v20.21c0,6-2.96,10.97-11.42,10.97-3.39,0-7.38-1.33-10.05-5.05Z"/>
    <path class="cls-3" d="m225.55,60.14h20.35v5.81h-13.42v7.09h11.46v5.81h-11.46v11.9h-6.93v-30.61Z"/>
    <path class="cls-3" d="m253.92,60.14h20.35v5.81h-13.42v7.09h11.46v5.81h-11.46v11.9h-6.93v-30.61Z"/>
  </g>
  <g>
    <path class="cls-3" d="m59.69,190.86h14.47v4.14h-9.53v4.38h8.09v4.14h-8.09v5.02h9.86v4.14h-14.8v-21.83Z"/>
    <path class="cls-3" d="m78.61,210.54l2.09-3.07c2.04,1.27,4.33,1.97,6.71,1.97,1.83,0,2.64-.61,2.64-1.42,0-.92-.81-1.26-4.07-1.95-4.52-.97-6.32-2.62-6.32-5.19,0-3.1,2.89-5.2,7.64-5.2,2.96,0,5.46,1.17,7.19,2.27l-2.21,2.96c-1.68-1.01-3.6-1.59-5.44-1.59-1.54,0-2.3.55-2.3,1.33,0,.92,1.02,1.14,3.84,1.77,5.13,1.15,6.55,2.61,6.55,5.31,0,3.01-2.87,5.36-8.2,5.36-2.96,0-6.03-1.15-8.13-2.55Z"/>
    <path class="cls-3" d="m102.9,205.8v-5.87h-4.19v-3.67l4.41-.19.63-5.08h4.08v5.08h7v3.86h-7v5.8c0,2.53,1.07,3.48,3.49,3.48,1.24,0,2.3-.25,3.28-.59l.89,3.57c-1.47.44-3.22.9-5.43.9-5.29,0-7.17-2.93-7.17-7.29Z"/>
    <path class="cls-3" d="m123.45,209.15c0-2.18,1.59-3.93,3.9-3.93s3.9,1.75,3.9,3.93-1.59,3.93-3.9,3.93-3.9-1.72-3.9-3.93Z"/>
  </g>
  <g>
    <path class="cls-3" d="m325.11,208.7h5.73v-12.29h-4.72v-3.07c2.88-.43,4.39-.96,6.02-1.94h3.62v17.29h4.83v3.98h-15.49v-3.98Z"/>
    <path class="cls-3" d="m344.79,210.53l2.6-2.95c.88.81,2.32,1.53,3.75,1.53,2.72,0,5.1-1.89,5.1-7.55,0-5.28-1.99-6.84-4.01-6.84-1.7,0-3.24,1.02-3.24,3.42,0,2.17,1.27,3.1,3.15,3.1,1.29,0,2.73-.62,4.06-2.29l.22,3.22c-1.55,1.62-3.7,2.55-5.35,2.55-3.71,0-6.58-2.07-6.58-6.57s3.56-7.13,7.63-7.13c4.37,0,8.62,3.08,8.62,10.55,0,7.95-4.46,11.53-9.16,11.53-3.02,0-5.33-1.19-6.78-2.56Z"/>
    <path class="cls-3" d="m375.68,195.56h-10.67v-4.15h15.98v3.04c-5.39,5.93-6.24,9.93-6.64,18.23h-4.97c.42-7.08,1.86-11.52,6.3-17.12Z"/>
    <path class="cls-3" d="m385.81,208.7h5.73v-12.29h-4.72v-3.07c2.88-.43,4.39-.96,6.02-1.94h3.62v17.29h4.83v3.98h-15.49v-3.98Z"/>
  </g>
  <g>
    <polygon class="cls-2" points="181.21 275.63 175.8 280.17 127.58 249.83 132.98 245.29 181.21 275.63"/>
    <polygon class="cls-2" points="197.26 262.14 191.86 266.68 143.63 236.34 149.04 231.8 197.26 262.14"/>
    <polygon class="cls-2" points="229.28 235.25 223.87 239.79 175.65 209.45 181.05 204.91 229.28 235.25"/>
    <polygon class="cls-2" points="280.17 192.5 274.76 197.04 226.54 166.7 231.94 162.16 280.17 192.5"/>
    <polygon class="cls-2" points="298.88 176.78 293.47 181.32 245.25 150.97 250.65 146.43 298.88 176.78"/>
    <polygon class="cls-2" points="329.89 150.72 324.49 155.26 276.27 124.92 281.67 120.38 329.89 150.72"/>
    <polygon class="cls-2" points="211.92 249.83 206.51 254.37 158.29 224.03 163.69 219.49 211.92 249.83"/>
    <polygon class="cls-2" points="314.82 163.38 309.41 167.92 261.19 137.58 266.59 133.04 314.82 163.38"/>
    <g>
      <path class="cls-4" d="m137.19,250.69l-1.3,1.1c-.22.18-.6.2-.86.04h0c-.25-.16-.28-.44-.06-.62l1.3-1.1c.22-.18.6-.2.86-.04h0c.25.16.28.44.06.62Z"/>
      <path class="cls-4" d="m144.5,255.55l-1.3,1.1c-.22.18-.6.2-.86.04h0c-.25-.16-.28-.44-.06-.62l1.3-1.1c.22-.18.6-.2.86-.04h0c.25.16.28.44.06.62Z"/>
      <path class="cls-4" d="m167.68,270.13l-1.3,1.1c-.22.18-.6.2-.86.04h0c-.25-.16-.28-.44-.06-.62l1.3-1.1c.22-.18.6-.2.86-.04h0c.25.16.28.44.06.62Z"/>
      <path class="cls-4" d="m174.23,274.25l-1.3,1.1c-.22.18-.6.2-.86.04h0c-.25-.16-.28-.44-.06-.62l1.3-1.1c.22-.18.6-.2.86-.04h0c.25.16.28.44.06.62Z"/>
      <path class="cls-4" d="m153.25,237.21l-1.3,1.1c-.22.18-.6.2-.86.04h0c-.25-.16-.28-.44-.06-.62l1.3-1.1c.22-.18.6-.2.86-.04h0c.25.16.28.44.06.62Z"/>
      <path class="cls-4" d="m160.55,242.06l-1.3,1.1c-.22.18-.6.2-.86.04h0c-.25-.16-.28-.44-.06-.62l1.3-1.1c.22-.18.6-.2.86-.04h0c.25.16.28.44.06.62Z"/>
      <path class="cls-4" d="m183.73,256.64l-1.3,1.1c-.22.18-.6.2-.86.04h0c-.25-.16-.28-.44-.06-.62l1.3-1.1c.22-.18.6-.2.86-.04h0c.25.16.28.44.06.62Z"/>
      <path class="cls-4" d="m190.29,260.77l-1.3,1.1c-.22.18-.6.2-.86.04h0c-.25-.16-.28-.44-.06-.62l1.3-1.1c.22-.18.6-.2.86-.04h0c.25.16.28.44.06.62Z"/>
      <path class="cls-4" d="m167.9,224.89l-1.3,1.1c-.22.18-.6.2-.86.04h0c-.25-.16-.28-.44-.06-.62l1.3-1.1c.22-.18.6-.2.86-.04h0c.25.16.28.44.06.62Z"/>
      <path class="cls-4" d="m175.21,229.75l-1.3,1.1c-.22.18-.6.2-.86.04h0c-.25-.16-.28-.44-.06-.62l1.3-1.1c.22-.18.6-.2.86-.04h0c.25.16.28.44.06.62Z"/>
      <path class="cls-4" d="m198.39,244.33l-1.3,1.1c-.22.18-.6.2-.86.04h0c-.25-.16-.28-.44-.06-.62l1.3-1.1c.22-.18.6-.2.86-.04h0c.25.16.28.44.06.62Z"/>
      <path class="cls-4" d="m204.94,248.45l-1.3,1.1c-.22.18-.6.2-.86.04h0c-.25-.16-.28-.44-.06-.62l1.3-1.1c.22-.18.6-.2.86-.04h0c.25.16.28.44.06.62Z"/>
      <path class="cls-4" d="m185.26,210.31l-1.3,1.1c-.22.18-.6.2-.86.04h0c-.25-.16-.28-.44-.06-.62l1.3-1.1c.22-.18.6-.2.86-.04h0c.25.16.28.44.06.62Z"/>
      <path class="cls-4" d="m192.57,215.17l-1.3,1.1c-.22.18-.6.2-.86.04h0c-.25-.16-.28-.44-.06-.62l1.3-1.1c.22-.18.6-.2.86-.04h0c.25.16.28.44.06.62Z"/>
      <path class="cls-4" d="m215.74,229.75l-1.3,1.1c-.22.18-.6.2-.86.04h0c-.25-.16-.28-.44-.06-.62l1.3-1.1c.22-.18.6-.2.86-.04h0c.25.16.28.44.06.62Z"/>
      <path class="cls-4" d="m222.3,233.87l-1.3,1.1c-.22.18-.6.2-.86.04h0c-.25-.16-.28-.44-.06-.62l1.3-1.1c.22-.18.6-.2.86-.04h0c.25.16.28.44.06.62Z"/>
      <path class="cls-4" d="m236.15,167.56l-1.3,1.1c-.22.18-.6.2-.86.04h0c-.25-.16-.28-.44-.06-.62l1.3-1.1c.22-.18.6-.2.86-.04h0c.25.16.28.44.06.62Z"/>
      <path class="cls-4" d="m243.46,172.41l-1.3,1.1c-.22.18-.6.2-.86.04h0c-.25-.16-.28-.44-.06-.62l1.3-1.1c.22-.18.6-.2.86-.04h0c.25.16.28.44.06.62Z"/>
      <path class="cls-4" d="m266.63,187l-1.3,1.1c-.22.18-.6.2-.86.04h0c-.25-.16-.28-.44-.06-.62l1.3-1.1c.22-.18.6-.2.86-.04h0c.25.16.28.44.06.62Z"/>
      <path class="cls-4" d="m273.19,191.12l-1.3,1.1c-.22.18-.6.2-.86.04h0c-.25-.16-.28-.44-.06-.62l1.3-1.1c.22-.18.6-.2.86-.04h0c.25.16.28.44.06.62Z"/>
      <path class="cls-4" d="m254.87,151.84l-1.3,1.1c-.22.18-.6.2-.86.04h0c-.25-.16-.28-.44-.06-.62l1.3-1.1c.22-.18.6-.2.86-.04h0c.25.16.28.44.06.62Z"/>
      <path class="cls-4" d="m262.17,156.69l-1.3,1.1c-.22.18-.6.2-.86.04h0c-.25-.16-.28-.44-.06-.62l1.3-1.1c.22-.18.6-.2.86-.04h0c.25.16.28.44.06.62Z"/>
      <path class="cls-4" d="m285.35,171.27l-1.3,1.1c-.22.18-.6.2-.86.04h0c-.25-.16-.28-.44-.06-.62l1.3-1.1c.22-.18.6-.2.86-.04h0c.25.16.28.44.06.62Z"/>
      <path class="cls-4" d="m291.9,175.4l-1.3,1.1c-.22.18-.6.2-.86.04h0c-.25-.16-.28-.44-.06-.62l1.3-1.1c.22-.18.6-.2.86-.04h0c.25.16.28.44.06.62Z"/>
      <path class="cls-4" d="m270.81,138.45l-1.3,1.1c-.22.18-.6.2-.86.04h0c-.25-.16-.28-.44-.06-.62l1.3-1.1c.22-.18.6-.2.86-.04h0c.25.16.28.44.06.62Z"/>
      <path class="cls-4" d="m278.11,143.3l-1.3,1.1c-.22.18-.6.2-.86.04h0c-.25-.16-.28-.44-.06-.62l1.3-1.1c.22-.18.6-.2.86-.04h0c.25.16.28.44.06.62Z"/>
      <path class="cls-4" d="m301.29,157.88l-1.3,1.1c-.22.18-.6.2-.86.04h0c-.25-.16-.28-.44-.06-.62l1.3-1.1c.22-.18.6-.2.86-.04h0c.25.16.28.44.06.62Z"/>
      <path class="cls-4" d="m307.84,162.01l-1.3,1.1c-.22.18-.6.2-.86.04h0c-.25-.16-.28-.44-.06-.62l1.3-1.1c.22-.18.6-.2.86-.04h0c.25.16.28.44.06.62Z"/>
      <path class="cls-4" d="m285.88,125.78l-1.3,1.1c-.22.18-.6.2-.86.04h0c-.25-.16-.28-.44-.06-.62l1.3-1.1c.22-.18.6-.2.86-.04h0c.25.16.28.44.06.62Z"/>
      <path class="cls-4" d="m293.19,130.64l-1.3,1.1c-.22.18-.6.2-.86.04h0c-.25-.16-.28-.44-.06-.62l1.3-1.1c.22-.18.6-.2.86-.04h0c.25.16.28.44.06.62Z"/>
      <path class="cls-4" d="m316.36,145.22l-1.3,1.1c-.22.18-.6.2-.86.04h0c-.25-.16-.28-.44-.06-.62l1.3-1.1c.22-.18.6-.2.86-.04h0c.25.16.28.44.06.62Z"/>
      <path class="cls-4" d="m322.92,149.34l-1.3,1.1c-.22.18-.6.2-.86.04h0c-.25-.16-.28-.44-.06-.62l1.3-1.1c.22-.18.6-.2.86-.04h0c.25.16.28.44.06.62Z"/>
    </g>
    <polygon class="cls-2" points="308.97 113.52 121.13 271.32 117.39 268.97 305.23 111.16 308.97 113.52"/>
    <polygon class="cls-2" points="339.06 132.45 151.21 290.25 147.47 287.89 335.31 130.09 339.06 132.45"/>
  </g>
  <g>
    <polygon class="cls-2" points="290.9 269.3 297.23 273.16 338.26 237.67 331.94 233.81 290.9 269.3"/>
    <polygon class="cls-2" points="272.12 257.82 278.45 261.69 319.48 226.19 313.16 222.33 272.12 257.82"/>
    <polygon class="cls-2" points="234.68 234.94 241 238.8 282.03 203.31 275.71 199.44 234.68 234.94"/>
    <polygon class="cls-2" points="175.15 198.56 181.47 202.42 222.51 166.93 216.18 163.06 175.15 198.56"/>
    <polygon class="cls-2" points="153.26 185.18 159.58 189.04 200.61 153.55 194.29 149.69 153.26 185.18"/>
    <polygon class="cls-2" points="116.97 163.01 123.3 166.87 164.33 131.38 158.01 127.51 116.97 163.01"/>
    <polygon class="cls-2" points="254.98 247.35 261.3 251.21 302.34 215.72 296.02 211.85 254.98 247.35"/>
    <polygon class="cls-2" points="134.61 173.78 140.93 177.65 181.97 142.15 175.65 138.29 134.61 173.78"/>
    <g>
      <path class="cls-4" d="m328.96,239.63l1.53.93c.26.16.64.13.86-.05h0c.22-.19.18-.46-.07-.62l-1.53-.93c-.26-.16-.64-.13-.86.05h0c-.22.19-.18.46.07.62Z"/>
      <path class="cls-4" d="m322.79,245.26l1.53.93c.26.16.64.13.86-.05h0c.22-.19.18-.46-.07-.62l-1.53-.93c-.26-.16-.64-.13-.86.05h0c-.22.19-.18.46.07.62Z"/>
      <path class="cls-4" d="m303.07,262.32l1.53.93c.26.16.64.13.86-.05h0c.22-.19.18-.46-.07-.62l-1.53-.93c-.26-.16-.64-.13-.86.05h0c-.22.19-.18.46.07.62Z"/>
      <path class="cls-4" d="m297.49,267.14l1.53.93c.26.16.64.13.86-.05h0c.22-.19.18-.46-.07-.62l-1.53-.93c-.26-.16-.64-.13-.86.05h0c-.22.19-.18.46.07.62Z"/>
      <path class="cls-4" d="m310.18,228.15l1.53.93c.26.16.64.13.86-.05h0c.22-.19.18-.46-.07-.62l-1.53-.93c-.26-.16-.64-.13-.86.05h0c-.22.19-.18.46.07.62Z"/>
      <path class="cls-4" d="m304.01,233.78l1.53.93c.26.16.64.13.86-.05h0c.22-.19.18-.46-.07-.62l-1.53-.93c-.26-.16-.64-.13-.86.05h0c-.22.19-.18.46.07.62Z"/>
      <path class="cls-4" d="m284.29,250.84l1.53.93c.26.16.64.13.86-.05h0c.22-.19.18-.46-.07-.62l-1.53-.93c-.26-.16-.64-.13-.86.05h0c-.22.19-.18.46.07.62Z"/>
      <path class="cls-4" d="m278.71,255.66l1.53.93c.26.16.64.13.86-.05h0c.22-.19.18-.46-.07-.62l-1.53-.93c-.26-.16-.64-.13-.86.05h0c-.22.19-.18.46.07.62Z"/>
      <path class="cls-4" d="m293.03,217.67l1.53.93c.26.16.64.13.86-.05h0c.22-.19.18-.46-.07-.62l-1.53-.93c-.26-.16-.64-.13-.86.05h0c-.22.19-.18.46.07.62Z"/>
      <path class="cls-4" d="m286.87,223.31l1.53.93c.26.16.64.13.86-.05h0c.22-.19.18-.46-.07-.62l-1.53-.93c-.26-.16-.64-.13-.86.05h0c-.22.19-.18.46.07.62Z"/>
      <path class="cls-4" d="m267.15,240.36l1.53.93c.26.16.64.13.86-.05h0c.22-.19.18-.46-.07-.62l-1.53-.93c-.26-.16-.64-.13-.86.05h0c-.22.19-.18.46.07.62Z"/>
      <path class="cls-4" d="m261.57,245.19l1.53.93c.26.16.64.13.86-.05h0c.22-.19.18-.46-.07-.62l-1.53-.93c-.26-.16-.64-.13-.86.05h0c-.22.19-.18.46.07.62Z"/>
      <path class="cls-4" d="m272.73,205.27l1.53.93c.26.16.64.13.86-.05h0c.22-.19.18-.46-.07-.62l-1.53-.93c-.26-.16-.64-.13-.86.05h0c-.22.19-.18.46.07.62Z"/>
      <path class="cls-4" d="m266.56,210.9l1.53.93c.26.16.64.13.86-.05h0c.22-.19.18-.46-.07-.62l-1.53-.93c-.26-.16-.64-.13-.86.05h0c-.22.19-.18.46.07.62Z"/>
      <path class="cls-4" d="m246.84,227.95l1.53.93c.26.16.64.13.86-.05h0c.22-.19.18-.46-.07-.62l-1.53-.93c-.26-.16-.64-.13-.86.05h0c-.22.19-.18.46.07.62Z"/>
      <path class="cls-4" d="m241.27,232.78l1.53.93c.26.16.64.13.86-.05h0c.22-.19.18-.46-.07-.62l-1.53-.93c-.26-.16-.64-.13-.86.05h0c-.22.19-.18.46.07.62Z"/>
      <path class="cls-4" d="m213.2,168.88l1.53.93c.26.16.64.13.86-.05h0c.22-.19.18-.46-.07-.62l-1.53-.93c-.26-.16-.64-.13-.86.05h0c-.22.19-.18.46.07.62Z"/>
      <path class="cls-4" d="m207.04,174.52l1.53.93c.26.16.64.13.86-.05h0c.22-.19.18-.46-.07-.62l-1.53-.93c-.26-.16-.64-.13-.86.05h0c-.22.19-.18.46.07.62Z"/>
      <path class="cls-4" d="m187.31,191.57l1.53.93c.26.16.64.13.86-.05h0c.22-.19.18-.46-.07-.62l-1.53-.93c-.26-.16-.64-.13-.86.05h0c-.22.19-.18.46.07.62Z"/>
      <path class="cls-4" d="m181.74,196.4l1.53.93c.26.16.64.13.86-.05h0c.22-.19.18-.46-.07-.62l-1.53-.93c-.26-.16-.64-.13-.86.05h0c-.22.19-.18.46.07.62Z"/>
      <path class="cls-4" d="m191.31,155.51l1.53.93c.26.16.64.13.86-.05h0c.22-.19.18-.46-.07-.62l-1.53-.93c-.26-.16-.64-.13-.86.05h0c-.22.19-.18.46.07.62Z"/>
      <path class="cls-4" d="m185.14,161.14l1.53.93c.26.16.64.13.86-.05h0c.22-.19.18-.46-.07-.62l-1.53-.93c-.26-.16-.64-.13-.86.05h0c-.22.19-.18.46.07.62Z"/>
      <path class="cls-4" d="m165.42,178.2l1.53.93c.26.16.64.13.86-.05h0c.22-.19.18-.46-.07-.62l-1.53-.93c-.26-.16-.64-.13-.86.05h0c-.22.19-.18.46.07.62Z"/>
      <path class="cls-4" d="m159.85,183.02l1.53.93c.26.16.64.13.86-.05h0c.22-.19.18-.46-.07-.62l-1.53-.93c-.26-.16-.64-.13-.86.05h0c-.22.19-.18.46.07.62Z"/>
      <path class="cls-4" d="m172.66,144.11l1.53.93c.26.16.64.13.86-.05h0c.22-.19.18-.46-.07-.62l-1.53-.93c-.26-.16-.64-.13-.86.05h0c-.22.19-.18.46.07.62Z"/>
      <path class="cls-4" d="m166.5,149.74l1.53.93c.26.16.64.13.86-.05h0c.22-.19.18-.46-.07-.62l-1.53-.93c-.26-.16-.64-.13-.86.05h0c-.22.19-.18.46.07.62Z"/>
      <path class="cls-4" d="m146.78,166.8l1.53.93c.26.16.64.13.86-.05h0c.22-.19.18-.46-.07-.62l-1.53-.93c-.26-.16-.64-.13-.86.05h0c-.22.19-.18.46.07.62Z"/>
      <path class="cls-4" d="m141.2,171.62l1.53.93c.26.16.64.13.86-.05h0c.22-.19.18-.46-.07-.62l-1.53-.93c-.26-.16-.64-.13-.86.05h0c-.22.19-.18.46.07.62Z"/>
      <path class="cls-4" d="m155.03,133.33l1.53.93c.26.16.64.13.86-.05h0c.22-.19.18-.46-.07-.62l-1.53-.93c-.26-.16-.64-.13-.86.05h0c-.22.19-.18.46.07.62Z"/>
      <path class="cls-4" d="m148.86,138.97l1.53.93c.26.16.64.13.86-.05h0c.22-.19.18-.46-.07-.62l-1.53-.93c-.26-.16-.64-.13-.86.05h0c-.22.19-.18.46.07.62Z"/>
      <path class="cls-4" d="m129.14,156.02l1.53.93c.26.16.64.13.86-.05h0c.22-.19.18-.46-.07-.62l-1.53-.93c-.26-.16-.64-.13-.86.05h0c-.22.19-.18.46.07.62Z"/>
      <path class="cls-4" d="m123.56,160.85l1.53.93c.26.16.64.13.86-.05h0c.22-.19.18-.46-.07-.62l-1.53-.93c-.26-.16-.64-.13-.86.05h0c-.22.19-.18.46.07.62Z"/>
    </g>
    <polygon class="cls-2" points="129.56 123.87 349.29 258.16 352.48 255.4 132.75 121.12 129.56 123.87"/>
    <polygon class="cls-2" points="103.96 146.01 323.69 280.3 326.88 277.54 107.15 143.26 103.96 146.01"/>
  </g>
</svg>