<?xml version="1.0" encoding="UTF-8"?>
<svg id="Layer_17" data-name="Layer 17" xmlns="http://www.w3.org/2000/svg" viewBox="0 0 465.65 406">
  <defs>
    <style>
      .cls-1 {
        fill: #e5d9b6;
      }

      .cls-1, .cls-2 {
        stroke: #341a0d;
        stroke-miterlimit: 10;
      }

      .cls-3 {
        fill: #341a0d;
      }

      .cls-3, .cls-4 {
        stroke-width: 0px;
      }

      .cls-2 {
        fill: #5e3914;
        stroke-width: .25px;
      }

      .cls-4 {
        fill: #cb9542;
      }
    </style>
  </defs>
  <polygon class="cls-1" points="343.79 8.49 119.86 8.49 7.89 202.42 119.86 396.35 343.79 396.35 455.75 202.42 343.79 8.49"/>
  <g>
    <path class="cls-3" d="m175.01,70.99c1.85-2.16,2.8-3.23,4.72-5.36,2.83,1.79,5.88,2.53,8.68,2.13,4.32-.63,6.38-2.26,5.85-6.55-.69-5.66-1.04-8.5-1.73-14.16-7.1.87-10.64,1.4-17.69,2.67-.42-2.36-.64-3.53-1.06-5.89,9.39-1.74,19.02-3.03,28.53-3.83.74,8.3,1.1,12.45,1.84,20.75.55,6.16-3.06,11.41-14.56,13.07-4.61.66-10.2.24-14.6-2.82Z"/>
    <path class="cls-3" d="m216.04,39.09c10.25-.52,20.7-.49,30.94.08-.12,2.39-.18,3.59-.3,5.98-8.01-.41-12.02-.48-20.03-.38.04,2.92.06,4.39.09,7.31,6.68-.09,10.03-.04,16.71.24-.1,2.39-.15,3.59-.25,5.98-6.55-.27-9.83-.32-16.38-.24.06,4.9.09,7.36.16,12.26-3.8.05-5.7.1-9.5.28-.48-10.5-.96-21.01-1.44-31.51Z"/>
    <path class="cls-3" d="m259.15,40.02c10.25.86,20.62,2.29,30.72,4.24-.44,2.35-.66,3.53-1.1,5.88-7.91-1.48-11.88-2.1-19.85-3.07-.36,2.9-.53,4.35-.89,7.26,6.65.81,9.96,1.31,16.57,2.49-.42,2.36-.63,3.54-1.05,5.89-6.48-1.15-9.73-1.64-16.24-2.44-.6,4.87-.89,7.3-1.49,12.17-3.78-.46-5.67-.66-9.46-1,.93-10.47,1.87-20.95,2.8-31.42Z"/>
    <path class="cls-3" d="m130.08,116.84c3.33-1.38,5.01-2.04,8.37-3.3,5.25,4.73,7.8,7.16,12.71,12.11,2.07,2.23,3.09,3.35,5.1,5.61.07-.02.11-.03.18-.06-1.37-3.05-3.47-7.01-4.64-10.54-1.4-4.24-2.1-6.35-3.49-10.59,3.16-1.04,4.75-1.54,7.94-2.48,2.98,10.08,5.95,20.17,8.93,30.25-3.02.89-4.52,1.36-7.51,2.36-4.7-5.06-7.13-7.54-12.18-12.39-2.12-2.16-3.2-3.23-5.38-5.35-.07.03-.11.04-.19.07,1.6,3.12,3.82,6.8,5.13,10.27,1.58,4.19,2.37,6.28,3.95,10.47-2.75,1.04-4.12,1.58-6.85,2.71-4.02-9.71-8.05-19.43-12.07-29.14Z"/>
    <path class="cls-3" d="m170.04,129.57c-1.37-5.2,2.76-9.42,15.34-12.47-.67-2.06-2.76-3.02-6.41-2.25-2.62.55-5.03,2.01-7.72,4.07-1.58-1.53-2.38-2.29-4-3.8,3.3-2.82,7.42-5.18,12.15-6.15,7.82-1.6,13.13,1.22,14.25,8.49.83,5.43,1.24,8.14,2.07,13.57-2.45.38-3.68.58-6.12,1.02-.41-1.03-.61-1.54-1.03-2.56-.08.01-.12.02-.19.04-2.25,2.27-5.09,4.33-8.3,5.05-5.06,1.14-9.01-1.1-10.04-5Zm-2.46-25.03c-.53-2.15.97-4.26,3.73-4.89,2.75-.63,5.03.63,5.48,2.79.45,2.17-1.08,4.2-3.74,4.81-2.68.61-4.93-.56-5.47-2.71Zm19.32,20.66c-.29-1.55-.43-2.32-.72-3.87-7.71,1.8-9.41,3.88-8.95,5.88.35,1.51,1.9,1.91,4.05,1.45,2.28-.49,4.03-1.83,5.62-3.47Zm-6.6-23.47c-.42-2.17,1.19-4.21,3.96-4.7,2.78-.49,4.98.88,5.32,3.06.35,2.19-1.27,4.14-3.97,4.62-2.69.47-4.89-.81-5.31-2.98Z"/>
    <path class="cls-3" d="m201.58,127.09c1.08-1.93,1.63-2.89,2.76-4.8,3.43,1.46,7.08,2.15,10.8,1.9,2.86-.19,4.09-1.11,4.03-2.29-.06-1.34-1.36-1.81-6.64-2.41-7.31-.84-10.52-2.79-10.95-6.48-.52-4.44,4.01-8.12,12.06-8.66,5.03-.34,9.35,1.22,12.29,2.76-1.45,1.74-2.16,2.61-3.57,4.37-2.82-1.37-6.07-2.04-9.12-1.83-2.56.18-3.76,1.09-3.66,2.21.11,1.33,1.83,1.46,6.48,2.1,8.47,1.16,10.77,3.37,10.84,7.28.07,4.35-4.28,7.72-12.44,8.29-4.54.32-9.37-.84-12.87-2.44Z"/>
    <path class="cls-3" d="m233.03,125.29c1.32-1.76,2-2.64,3.37-4.39,3.2,1.91,6.72,3.08,10.44,3.33,2.86.2,4.2-.55,4.3-1.73.12-1.33-1.11-1.98-6.25-3.28-7.13-1.81-10.04-4.18-9.97-7.89.08-4.47,5.05-7.51,13.1-6.97,5.03.34,9.11,2.46,11.81,4.38-1.67,1.53-2.5,2.3-4.12,3.85-2.61-1.74-5.75-2.83-8.8-3.03-2.56-.17-3.87.57-3.92,1.7-.07,1.33,1.61,1.69,6.14,2.95,8.24,2.28,10.24,4.78,9.77,8.66-.51,4.32-5.29,7.07-13.45,6.55-4.54-.29-9.17-2.09-12.41-4.14Z"/>
    <path class="cls-3" d="m262.33,138.49c1.14-1.9,1.71-2.84,2.88-4.73,1.89,1.16,3.43,1.69,4.88,1.95,3.54.62,4.92-.68,5.6-4.09,1.34-6.78,2.01-10.17,3.35-16.95-4.38-.86-6.57-1.25-10.98-1.91.33-2.21.5-3.31.84-5.52,7.82,1.18,11.71,1.93,19.44,3.72-2.04,8.79-3.06,13.19-5.1,21.99-1.33,5.71-4.9,9.92-13.68,8.36-2.98-.53-5.27-1.57-7.23-2.81Zm17.58-37.59c.49-2.56,3.24-3.9,6.57-3.19,3.33.71,5.3,3.05,4.7,5.59-.6,2.55-3.31,3.68-6.53,3-3.22-.69-5.23-2.82-4.74-5.4Z"/>
    <path class="cls-3" d="m297.54,125.76c2.2-7.69,10.22-10.2,17.36-7.71,7.14,2.49,11.92,9.47,8.86,16.86-3.05,7.36-10.72,9.16-17.15,6.91-6.43-2.24-11.26-8.4-9.07-16.06Zm8.88-17.74c.64-2.12,3.01-3.17,5.72-2.3,2.7.87,4.04,3.11,3.32,5.21-.71,2.09-3.09,3.06-5.7,2.22-2.63-.85-3.98-3-3.34-5.12Zm9.61,23.85c1.46-3.9.58-7.12-3.03-8.38-3.61-1.26-6.3.72-7.58,4.68-1.28,3.95-.34,7.04,3.07,8.23,3.41,1.19,6.08-.64,7.54-4.53Zm2.84-19.75c.74-2.08,3.19-3.01,5.85-2.01,2.68,1.01,3.9,3.32,3.08,5.37-.82,2.06-3.23,2.9-5.83,1.92-2.58-.97-3.84-3.21-3.1-5.29Z"/>
  </g>
  <g>
    <path class="cls-3" d="m62.51,204.02h11.66v3.34h-7.68v3.53h6.52v3.34h-6.52v4.05h7.95v3.34h-11.93v-17.59Z"/>
    <path class="cls-3" d="m77.75,219.88l1.69-2.48c1.65,1.02,3.49,1.59,5.4,1.59,1.47,0,2.12-.49,2.12-1.15,0-.75-.65-1.02-3.28-1.57-3.64-.78-5.09-2.12-5.09-4.18,0-2.5,2.33-4.19,6.15-4.19,2.39,0,4.4.94,5.8,1.83l-1.78,2.38c-1.35-.82-2.9-1.28-4.38-1.28-1.24,0-1.85.44-1.85,1.07,0,.74.82.92,3.09,1.43,4.13.93,5.28,2.1,5.28,4.28,0,2.42-2.31,4.32-6.61,4.32-2.39,0-4.86-.93-6.55-2.05Z"/>
    <path class="cls-3" d="m97.33,216.06v-4.73h-3.37v-2.96l3.55-.15.51-4.09h3.28v4.09h5.64v3.11h-5.64v4.68c0,2.04.86,2.8,2.81,2.8,1,0,1.86-.2,2.64-.48l.72,2.87c-1.19.35-2.59.72-4.38.72-4.26,0-5.78-2.36-5.78-5.87Z"/>
    <path class="cls-3" d="m113.89,218.77c0-1.76,1.28-3.17,3.14-3.17s3.14,1.41,3.14,3.17-1.28,3.17-3.14,3.17-3.14-1.38-3.14-3.17Z"/>
  </g>
  <g>
    <path class="cls-3" d="m342.46,221.51c4.92-4.12,8.22-7.03,8.22-9.5,0-1.66-1.03-2.57-2.83-2.57-1.37,0-2.48.84-3.45,1.74l-2.13-2.15c1.78-1.8,3.5-2.72,6.12-2.72,3.61,0,6.06,2.16,6.06,5.46,0,2.89-2.97,5.96-6.29,8.86.98-.1,2.23-.19,3.12-.19h4.06v3.34h-12.88v-2.28Z"/>
    <path class="cls-3" d="m358.72,215.14c0-5.83,2.62-8.82,6.59-8.82s6.59,2.99,6.59,8.82-2.62,8.97-6.59,8.97-6.59-3.15-6.59-8.97Zm9.64,0c0-4.45-1.35-5.75-3.05-5.75s-3.05,1.29-3.05,5.75,1.35,5.89,3.05,5.89,3.05-1.44,3.05-5.89Zm-5.08-.05c0-1.24.88-2.05,2.02-2.05s2.02.81,2.02,2.05-.88,2.06-2.02,2.06-2.02-.81-2.02-2.06Z"/>
    <path class="cls-3" d="m375.03,215.14c0-5.83,2.62-8.82,6.59-8.82s6.59,2.99,6.59,8.82-2.62,8.97-6.59,8.97-6.59-3.15-6.59-8.97Zm9.64,0c0-4.45-1.35-5.75-3.05-5.75s-3.05,1.29-3.05,5.75,1.35,5.89,3.05,5.89,3.05-1.44,3.05-5.89Zm-5.08-.05c0-1.24.88-2.05,2.02-2.05s2.02.81,2.02,2.05-.88,2.06-2.02,2.06-2.02-.81-2.02-2.06Z"/>
    <path class="cls-3" d="m391.33,215.14c0-5.83,2.62-8.82,6.59-8.82s6.59,2.99,6.59,8.82-2.62,8.97-6.59,8.97-6.59-3.15-6.59-8.97Zm9.64,0c0-4.45-1.35-5.75-3.05-5.75s-3.05,1.29-3.05,5.75,1.35,5.89,3.05,5.89,3.05-1.44,3.05-5.89Zm-5.08-.05c0-1.24.88-2.05,2.02-2.05s2.02.81,2.02,2.05-.88,2.06-2.02,2.06-2.02-.81-2.02-2.06Z"/>
  </g>
  <polygon class="cls-2" points="118.81 395.43 131.86 396.35 211.94 158.65 208.31 158 118.81 395.43"/>
  <polygon class="cls-2" points="341.78 395.43 328.73 396.35 248.65 158.65 252.28 158 341.78 395.43"/>
  <polygon class="cls-2" points="326.66 265.74 335.08 279.7 126.24 279.28 133.51 265.51 326.66 265.74"/>
  <polygon class="cls-4" points="150.61 269.34 147.81 275.11 153.13 275.11 155.09 269.34 150.61 269.34"/>
  <polygon class="cls-2" points="348.8 296.63 359.17 313.49 102.16 312.99 111.11 296.36 348.8 296.63"/>
  <polygon class="cls-4" points="309.26 269.57 312.06 275.34 306.73 275.34 304.77 269.57 309.26 269.57"/>
  <polygon class="cls-4" points="274.51 269.57 279.28 269.57 281.52 275.34 274.51 275.34 274.51 269.57"/>
  <polygon class="cls-4" points="186.23 269.57 181.47 269.57 179.23 275.34 186.23 275.34 186.23 269.57"/>
  <polygon class="cls-4" points="132.15 300.98 128.7 307.95 135.25 307.95 137.67 300.98 132.15 300.98"/>
  <polygon class="cls-2" points="372.03 333.05 384.44 353.28 76.89 352.68 87.6 332.72 372.03 333.05"/>
  <polygon class="cls-4" points="327.38 301.26 330.83 308.23 324.28 308.23 321.86 301.26 327.38 301.26"/>
  <polygon class="cls-4" points="284.63 301.26 290.49 301.26 293.25 308.23 284.63 308.23 284.63 301.26"/>
  <polygon class="cls-4" points="175.99 301.26 170.12 301.26 167.36 308.23 175.99 308.23 175.99 301.26"/>
  <polygon class="cls-4" points="112.77 338.27 108.64 346.63 116.49 346.63 119.38 338.27 112.77 338.27"/>
  <polygon class="cls-2" points="308.55 240.38 315.55 252.33 142.1 251.98 148.14 240.19 308.55 240.38"/>
  <polygon class="cls-4" points="346.4 338.61 350.53 346.97 342.69 346.97 339.8 338.61 346.4 338.61"/>
  <polygon class="cls-4" points="295.24 338.61 302.26 338.61 305.56 346.97 295.24 346.97 295.24 338.61"/>
  <polygon class="cls-4" points="165.24 338.61 158.22 338.61 154.92 346.97 165.24 346.97 165.24 338.61"/>
  <polygon class="cls-4" points="162.34 243.47 160.01 248.41 164.43 248.41 166.06 243.47 162.34 243.47"/>
  <polygon class="cls-2" points="291.8 217.12 297.42 226.58 158.15 226.3 163 216.97 291.8 217.12"/>
  <polygon class="cls-4" points="294.1 243.66 296.43 248.61 292.01 248.61 290.38 243.66 294.1 243.66"/>
  <polygon class="cls-4" points="265.25 243.66 269.2 243.66 271.07 248.61 265.25 248.61 265.25 243.66"/>
  <polygon class="cls-4" points="191.93 243.66 187.97 243.66 186.1 248.61 191.93 248.61 191.93 243.66"/>
  <polygon class="cls-4" points="174.4 219.56 172.53 223.47 176.08 223.47 177.39 219.56 174.4 219.56"/>
  <polygon class="cls-2" points="271.58 174.44 275.3 181.98 183.16 181.76 186.36 174.32 271.58 174.44"/>
  <polygon class="cls-4" points="280.2 219.72 282.07 223.63 278.52 223.63 277.21 219.72 280.2 219.72"/>
  <polygon class="cls-4" points="257.03 219.72 260.21 219.72 261.7 223.63 257.03 223.63 257.03 219.72"/>
  <polygon class="cls-4" points="198.16 219.72 194.98 219.72 193.49 223.63 198.16 223.63 198.16 219.72"/>
  <polygon class="cls-4" points="193.91 176.39 192.67 179.5 195.02 179.5 195.89 176.39 193.91 176.39"/>
  <polygon class="cls-2" points="282.98 195.41 287.67 204.35 171.47 204.08 175.52 195.26 282.98 195.41"/>
  <polygon class="cls-4" points="263.9 176.51 265.14 179.63 262.79 179.63 261.92 176.51 263.9 176.51"/>
  <polygon class="cls-4" points="247.22 176.51 249.32 176.51 250.31 179.63 247.22 179.63 247.22 176.51"/>
  <polygon class="cls-4" points="210.98 176.51 208.87 176.51 207.88 179.63 210.98 179.63 210.98 176.51"/>
  <polygon class="cls-4" points="185.03 197.71 183.47 201.41 186.43 201.41 187.52 197.71 185.03 197.71"/>
  <polygon class="cls-2" points="266.41 158.05 269.45 163.71 194.02 163.55 196.64 157.95 266.41 158.05"/>
  <polygon class="cls-4" points="273.3 197.86 274.86 201.56 271.9 201.56 270.81 197.86 273.3 197.86"/>
  <polygon class="cls-4" points="253.97 197.86 256.62 197.86 257.87 201.56 253.97 201.56 253.97 197.86"/>
  <polygon class="cls-4" points="204.85 197.86 202.2 197.86 200.95 201.56 204.85 201.56 204.85 197.86"/>
  <polygon class="cls-4" points="202.82 159.51 201.8 161.85 203.73 161.85 204.44 159.51 202.82 159.51"/>
  <polygon class="cls-4" points="260.12 159.6 261.14 161.94 259.21 161.94 258.5 159.6 260.12 159.6"/>
  <polygon class="cls-4" points="244.87 159.6 246.59 159.6 247.4 161.94 244.87 161.94 244.87 159.6"/>
  <polygon class="cls-4" points="218.39 159.6 216.67 159.6 215.86 161.94 218.39 161.94 218.39 159.6"/>
</svg>